<svg width="49" height="49" viewBox="0 0 49 49" fill="none" xmlns="http://www.w3.org/2000/svg">
<circle cx="24.5" cy="24.5" r="24" fill="white" stroke="#F2F2F2"/>
<path d="M24.5 16.5876C16.8438 16.5876 13.7812 24.5 13.7812 24.5C13.7812 24.5 16.8438 32.4106 24.5 32.4106C32.1562 32.4106 35.2188 24.5 35.2188 24.5C35.2188 24.5 32.1562 16.5876 24.5 16.5876V16.5876Z" stroke="#1A1A1A" stroke-width="1.5" stroke-linecap="round" stroke-linejoin="round"/>
<path d="M24.5 28.3281C25.5153 28.3281 26.489 27.9248 27.2069 27.2069C27.9248 26.489 28.3281 25.5153 28.3281 24.5C28.3281 23.4847 27.9248 22.511 27.2069 21.7931C26.489 21.0752 25.5153 20.6719 24.5 20.6719C23.4847 20.6719 22.511 21.0752 21.7931 21.7931C21.0752 22.511 20.6719 23.4847 20.6719 24.5C20.6719 25.5153 21.0752 26.489 21.7931 27.2069C22.511 27.9248 23.4847 28.3281 24.5 28.3281V28.3281Z" stroke="#1A1A1A" stroke-width="1.5" stroke-linecap="round" stroke-linejoin="round"/>
</svg>
