<?xml version="1.0" encoding="UTF-8"?>
<svg version="1.1" xmlns="http://www.w3.org/2000/svg" width="2696" height="2769">
<path d="M0 0 C4.18093672 1.47107033 7.62888577 3.62461051 11.25 6.125 C18.25226794 10.87936039 25.36117168 15.45372434 32.5 20 C45.92183531 28.56038315 45.92183531 28.56038315 52.4375 32.9375 C54.95789532 34.62565496 57.47871522 36.31317373 60 38 C60.91797363 38.61456055 61.83594727 39.22912109 62.78173828 39.86230469 C94.53836704 61.0600922 128.15036874 78.44757645 162.51351929 95 C177.2678659 102.10754368 191.91947252 109.41623369 206.5625 116.75 C208.27576981 117.60803223 208.27576981 117.60803223 210.02365112 118.48339844 C215.23213533 121.09249881 220.43988434 123.70305803 225.64672852 126.31542969 C226.54470657 126.76484421 227.44268463 127.21425873 228.36787415 127.67729187 C230.09954382 128.54749857 231.82815833 129.4238163 233.5533905 130.30671692 C239.34327322 133.25364714 245.21252834 135.84884964 251.23046875 138.29296875 C252.64793648 138.87440643 252.64793648 138.87440643 254.09403992 139.46759033 C256.09534484 140.288391 258.09727482 141.10766911 260.09979248 141.92550659 C265.29607123 144.04930539 270.48570925 146.18921316 275.67578125 148.328125 C276.6814917 148.74239243 277.68720215 149.15665985 278.72338867 149.58348083 C303.14596721 159.64962928 326.69762074 171.01400083 350.01708984 183.42089844 C352.93446442 184.96530659 355.85768972 186.49800515 358.78268433 188.02790833 C375.59883794 196.82600734 392.1941513 205.84124056 408.51367188 215.53808594 C412.10140631 217.64760614 415.73521521 219.66963528 419.375 221.6875 C443.63898258 235.25908864 467.43945727 250.58973139 489.35449219 267.71923828 C491.01909813 269.01486481 492.69823149 270.2890756 494.3828125 271.55859375 C501.51991994 276.95351496 508.36602926 282.61486261 515.14599609 288.44921875 C516.50416021 289.58525489 517.88568232 290.69352207 519.27978516 291.78515625 C527.42185879 298.21719646 534.6997226 305.39490766 542.00732422 312.74658203 C544.1211762 314.8711568 546.24551542 316.98482061 548.37109375 319.09765625 C555.71038272 326.42953955 562.59858527 333.82746999 569 342 C570.04703419 343.24884209 571.09984932 344.49287577 572.16015625 345.73046875 C586.48431095 362.68484718 598.30695195 381.59006626 609 401 C609.62116699 402.10891602 609.62116699 402.10891602 610.25488281 403.24023438 C630.30863274 439.15879816 643.30877107 479.29090027 649 520 C649.17877686 521.27697754 649.35755371 522.55395508 649.54174805 523.86962891 C651.17917917 536.44873042 651.35878233 548.95354161 651.3125 561.625 C651.31034485 562.68714722 651.3081897 563.74929443 651.30596924 564.84362793 C651.25621603 580.11642517 650.89562741 594.96389274 648 610 C647.81195801 611.0528418 647.62391602 612.10568359 647.43017578 613.19042969 C642.73822327 639.14734117 634.76769792 664.36406851 623 688 C622.61376465 688.78342773 622.2275293 689.56685547 621.82958984 690.37402344 C613.22845493 707.67487361 603.17308462 723.98518536 591 739 C589.89398437 740.39412109 589.89398437 740.39412109 588.765625 741.81640625 C577.70869195 755.59836357 565.57293091 768.80974426 551.64013672 779.71484375 C550.47647883 780.62664713 549.31706685 781.54388093 548.16064453 782.46484375 C498.84160649 821.69506295 438.84723485 843.31965163 377 852.8125 C375.73921631 853.00739014 374.47843262 853.20228027 373.17944336 853.40307617 C351.66706769 856.5354371 330.28667695 857.37625425 308.5625 857.3125 C307.22558601 857.31027675 305.88867195 857.30810027 304.55175781 857.30596924 C284.86685575 857.26251745 265.50376645 856.8516062 246 854 C245.30676636 853.90054077 244.61353271 853.80108154 243.89929199 853.6986084 C213.27693245 849.29147496 183.41809962 842.67980913 154 833 C153.04109863 832.68981934 152.08219727 832.37963867 151.09423828 832.06005859 C134.63098453 826.70815678 118.79741104 820.05932772 103 813 C101.80584473 812.46681152 100.61168945 811.93362305 99.38134766 811.38427734 C83.52399285 804.2605799 68.10811428 796.59730604 53 788 C52.18241211 787.53883789 51.36482422 787.07767578 50.52246094 786.60253906 C19.92564587 769.32361625 -9.00481978 749.50079292 -36 727 C-36.57975586 726.51934082 -37.15951172 726.03868164 -37.75683594 725.54345703 C-45.21040107 719.35635726 -52.42798145 712.95365167 -59.52490234 706.36181641 C-60.98250047 705.01615564 -62.45408362 703.68569478 -63.92578125 702.35546875 C-73.80857221 693.41514262 -83.61851403 684.22601869 -92.23828125 674.04296875 C-94.09078907 671.89471688 -96.00851824 669.81377143 -97.9387207 667.73535156 C-103.55115908 661.68693081 -108.86169143 655.46008812 -114 649 C-114.40653809 648.49307617 -114.81307617 647.98615234 -115.23193359 647.46386719 C-127.21836308 632.509413 -138.61171285 617.10885067 -149 601 C-149.45552246 600.30003906 -149.91104492 599.60007812 -150.38037109 598.87890625 C-187.81726194 541.24862991 -214.34035009 477.42929861 -231.0625 410.875 C-231.29251709 409.96668427 -231.52253418 409.05836853 -231.75952148 408.12252808 C-235.70828375 392.42605547 -238.72265722 376.64069043 -240.125 360.5 C-240.19847656 359.74332031 -240.27195312 358.98664063 -240.34765625 358.20703125 C-240.5986031 355.4730314 -240.80529778 352.73860904 -241 350 C-241.08467529 348.81301514 -241.16935059 347.62603027 -241.2565918 346.40307617 C-242.3190007 329.88865547 -242.33274598 313.32452183 -242.53222656 296.7824707 C-242.58318146 292.62512675 -242.63847433 288.46784047 -242.69335938 284.31054688 C-242.7997243 276.20708054 -242.90141977 268.10356477 -243 260 C-243.64490378 261.75101175 -244.28773144 263.50278822 -244.9296875 265.25488281 C-245.28788574 266.23032043 -245.64608398 267.20575806 -246.01513672 268.21075439 C-254.83719073 293.19582172 -255.80036605 322.75310688 -257 349 C-257.04672852 349.95116699 -257.09345703 350.90233398 -257.14160156 351.88232422 C-260.38436216 427.43319624 -233.06189985 502.04820968 -194.81640625 565.94042969 C-191.48545167 571.55111823 -188.24896801 577.21659474 -185 582.875 C-181.09369067 589.6760164 -177.15922236 596.45021384 -173.06640625 603.14111328 C-172 605 -172 605 -172 606 C-178.19697724 605.59206819 -183.32513166 604.43146786 -189 601.9375 C-190.0971936 601.4744043 -190.0971936 601.4744043 -191.21655273 601.00195312 C-194.87658995 599.43711768 -198.47681283 597.78788535 -202.03515625 596.00390625 C-247.48962027 573.26557696 -306.79333396 569.04521261 -355.125 584.75 C-377.32387425 592.21041324 -377.32387425 592.21041324 -393.625 608 C-394.07875 608.99 -394.5325 609.98 -395 611 C-387.95726305 610.48856315 -382.04811637 608.37469345 -375.5 605.8125 C-374.43700684 605.40684814 -373.37401367 605.00119629 -372.27880859 604.58325195 C-367.67545827 602.82466477 -363.08418564 601.03852196 -358.5078125 599.2109375 C-336.4375394 590.47563575 -313.42771744 586.90921641 -290.9140625 596.28515625 C-276.26063037 603.65291834 -267.44635687 615.54352143 -262 630.75390625 C-256.06448179 650.02115482 -258.17357133 671.00462453 -267 689 C-267.38027344 689.78761719 -267.76054688 690.57523438 -268.15234375 691.38671875 C-277.31617958 709.06644242 -292.84648452 719.35454763 -311.3125 725.47265625 C-340.67336992 734.69829893 -371.39941513 732.56336521 -401.66567993 730.35424805 C-465.27324648 724.4101022 -465.27324648 724.4101022 -522.28515625 748.67578125 C-527.45729902 753.22047079 -532.21064224 758.06190586 -536.40234375 763.5390625 C-538.48263592 765.44133456 -540.24693864 765.65528504 -543 766 C-544.75715425 716.57295152 -503.48360815 650.10030576 -471.25830078 615.46875 C-469.84539988 613.97279579 -468.42390394 612.48548074 -467 611 C-466.49742676 610.47019531 -465.99485352 609.94039062 -465.47705078 609.39453125 C-428.44631381 570.52898992 -376.22024776 548.79201254 -322.8359375 546.08984375 C-308.51508642 545.75442667 -294.28762654 545.70176648 -280 546.875 C-279.0404541 546.95339111 -278.0809082 547.03178223 -277.09228516 547.11254883 C-270.96169772 547.67413347 -265.01018119 548.67182818 -259 550 C-259 549.01 -259 548.02 -259 547 C-259.59006836 546.7321167 -260.18013672 546.4642334 -260.78808594 546.18823242 C-263.02184458 544.98826517 -264.56273425 543.73387987 -266.390625 541.98828125 C-267.01364502 541.39877686 -267.63666504 540.80927246 -268.27856445 540.2019043 C-269.25442505 539.26664917 -269.25442505 539.26664917 -270.25 538.3125 C-271.60202747 537.03296904 -272.95488288 535.75431233 -274.30859375 534.4765625 C-274.9516748 533.86844727 -275.59475586 533.26033203 -276.25732422 532.63378906 C-278.82097098 530.23032533 -281.45955956 527.92253938 -284.12109375 525.62890625 C-287.26400197 522.90418124 -290.3418617 520.10751873 -293.42578125 517.31640625 C-295.12067586 515.79125829 -296.82622056 514.27785023 -298.54296875 512.77734375 C-330.81274153 484.4099621 -351.06712497 437.59463941 -354 395 C-356.64801922 347.87477171 -337.47434549 303.06406576 -321.61752319 259.70297241 C-295.25646277 187.59831399 -272.67854136 113.22129676 -299.40869141 37.71606445 C-299.91215088 36.28846802 -299.91215088 36.28846802 -300.42578125 34.83203125 C-300.72911377 33.99389893 -301.03244629 33.1557666 -301.3449707 32.29223633 C-302 30 -302 30 -302 26 C-296.99292021 26.59181659 -292.74080357 28.18153457 -288.1875 30.25 C-287.03266113 30.77182861 -287.03266113 30.77182861 -285.85449219 31.30419922 C-255.03655972 45.46493618 -226.32652038 63.15097654 -200.76708984 85.50390625 C-199.41824011 86.64590005 -198.04382245 87.75776323 -196.65869141 88.85546875 C-189.34243817 94.67330857 -182.70910753 100.98230766 -176.12890625 107.61035156 C-174.37718425 109.37280238 -172.61500572 111.12428568 -170.8515625 112.875 C-164.10816359 119.61058974 -157.91787107 126.52029251 -152 134 C-150.44049815 135.8150803 -148.87866188 137.62816326 -147.3125 139.4375 C-106.69323895 188.34384368 -76.80522271 258.99743476 -82.5322113 323.57730103 C-83.62564679 335.0996771 -85.5893259 346.29935771 -87.9375 357.625 C-88.3316112 359.56565878 -88.72523421 361.50641675 -89.1184082 363.44726562 C-91.68723243 376.04157873 -94.44807186 388.58949276 -97.26025391 401.13134766 C-114.59168869 478.42785937 -122.07975778 553.35675639 -78.1875 623.75 C-69.98243635 636.57763472 -60.56012744 648.58207978 -50.15625 659.6953125 C-48.23082675 661.753283 -46.38904333 663.85467317 -44.5625 666 C-37.65386712 673.93515144 -30.02551829 681.20917683 -22 688 C-21.10410156 688.78503906 -20.20820312 689.57007813 -19.28515625 690.37890625 C33.23634644 736.11191539 100.23958956 766.31103204 168 781 C169.60270752 781.34901367 169.60270752 781.34901367 171.23779297 781.70507812 C179.12269089 783.3801268 187.03506704 784.76448377 195 786 C196.24958496 786.19754883 197.49916992 786.39509766 198.78662109 786.59863281 C236.57204234 792.31533267 277.2368414 793.18128993 315 787 C316.68754395 786.74259033 316.68754395 786.74259033 318.40917969 786.47998047 C375.52291061 777.69385662 433.93304651 755.7345236 476.81640625 715.97265625 C478.35387319 714.58371027 479.94646485 713.25460507 481.57421875 711.97265625 C483.73693599 710.21392484 485.46066434 708.49870647 487.25 706.375 C489.13640753 704.15593566 491.02619734 701.97228836 493.02734375 699.85546875 C520.82041635 670.35359964 538.16304154 629.99226308 546.25 590.75 C546.40122314 590.01958496 546.55244629 589.28916992 546.70825195 588.53662109 C549.60364619 573.53811926 550.37686358 558.67686875 550.3125 543.4375 C550.31034485 542.51557861 550.3081897 541.59365723 550.30596924 540.64379883 C550.25211116 526.25217412 549.74507033 512.16683196 547 498 C546.80132324 496.97132813 546.60264648 495.94265625 546.39794922 494.8828125 C541.73302662 471.5686825 534.43954116 449.35706779 524 428 C523.59974609 427.16968262 523.19949219 426.33936523 522.78710938 425.48388672 C513.13632968 405.63899603 500.89879706 387.12879919 487 370 C486.2678125 369.07703125 485.535625 368.1540625 484.78125 367.203125 C479.58353722 360.72428584 474.05413952 354.59169649 468.3984375 348.51611328 C467.02091995 347.02268032 465.66400323 345.51307709 464.3125 343.99609375 C458.08976696 337.03774072 451.49833494 330.64941168 444.55810547 324.40966797 C443.10010274 323.09056616 441.66063608 321.75105727 440.22265625 320.41015625 C434.27756631 314.88410349 428.08630546 309.81519647 421.671875 304.85546875 C419.17958094 302.92760599 416.71350394 300.97223736 414.265625 298.98828125 C413.32154785 298.22427002 413.32154785 298.22427002 412.35839844 297.44482422 C411.18735495 296.49500518 410.01842782 295.54256514 408.85253906 294.58642578 C397.88379411 285.71733983 386.05510882 277.91937316 374.3125 270.125 C373.33147308 269.47269913 373.33147308 269.47269913 372.33062744 268.80722046 C361.65251727 261.71026093 350.92049251 254.71982696 340 248 C338.98856934 247.37593262 337.97713867 246.75186523 336.93505859 246.10888672 C312.35688319 230.97415164 287.28069269 216.78196857 262.07666016 202.71777344 C255.83935567 199.23533618 249.60820359 195.74189618 243.37646484 192.24951172 C238.1594993 189.32654259 232.93997479 186.40835062 227.71484375 183.5 C214.3554062 176.05663264 201.09217218 168.46639464 187.91113281 160.71142578 C185.03463063 159.020359 182.15433267 157.33591319 179.2734375 155.65234375 C150.82897243 138.99317995 123.27976067 120.91287947 97 101 C96.40767578 100.55398438 95.81535156 100.10796875 95.20507812 99.6484375 C8.10216023 33.99398378 8.10216023 33.99398378 0.2890625 2.09765625 C0.19367187 1.40542969 0.09828125 0.71320312 0 0 Z " fill="#98C840" transform="translate(1132,999)"/>
<path d="M0 0 C2.37740764 0.03849366 4.754838 0.07519231 7.13227844 0.11159897 C57.30645693 0.89043338 107.28284769 3.59836196 157.16072083 9.28802109 C158.03695099 9.38789322 158.91318115 9.48776535 159.81596375 9.59066391 C171.18130457 10.89916157 182.50602835 12.43209745 193.82575989 14.08782578 C208.25656974 16.17634772 222.37767179 15.91126791 236.89509583 15.03411484 C238.03532196 14.96530609 239.1755481 14.89649734 240.35032654 14.82560349 C245.10239095 14.53503184 249.85407127 14.23956159 254.60505676 13.93181992 C298.11178193 11.13855164 298.11178193 11.13855164 311.28572083 17.72552109 C311.42967403 26.05465862 311.02348856 34.20446186 310.21589661 42.49212265 C310.10206635 43.70687775 309.98823608 44.92163284 309.87095642 46.1731987 C309.56090724 49.46933229 309.24590367 52.76491595 308.92843485 56.06033802 C308.59458769 59.53713838 308.26684175 63.01451457 307.9382782 66.49181747 C307.38553445 72.33229274 306.82851948 78.17234772 306.26863098 84.01214218 C305.6254206 90.72128203 304.98773624 97.43092801 304.35332882 104.14090562 C303.67271168 111.33930384 302.98839403 118.53734669 302.30281973 125.73527431 C302.10792913 127.78371974 301.91366483 129.83222375 301.71953201 131.88074112 C299.40319538 156.27330342 299.40319538 156.27330342 298.15608215 165.69524765 C297.26631767 172.50471617 296.82296905 179.27286192 296.53962708 186.13177109 C296.42323813 188.61354884 296.30669679 191.09531946 296.1900177 193.57708359 C296.01813927 197.38912783 295.84927252 201.20127436 295.68391418 205.01360703 C295.106056 218.1434982 294.4161912 231.20630956 292.81306458 244.25677109 C292.69290482 245.24584457 292.57274506 246.23491806 292.44894409 247.25396347 C291.86333231 251.67950665 291.2733561 255.66977947 289.28572083 259.72552109 C287.84863992 259.77975056 286.4109662 259.81841832 284.97322083 259.85052109 C284.17271301 259.87372421 283.3722052 259.89692734 282.54743958 259.92083359 C280.28572083 259.72552109 280.28572083 259.72552109 277.28572083 257.72552109 C276.48957825 255.48015976 276.48957825 255.48015976 275.89118958 252.64348984 C275.66101135 251.58041611 275.43083313 250.51734238 275.19367981 249.42205429 C274.95592834 248.26407333 274.71817688 247.10609238 274.47322083 245.91302109 C274.21677795 244.71701279 273.96033508 243.52100449 273.69612122 242.28875351 C272.33103575 235.88354451 271.02857391 229.46657914 269.73884583 223.04583359 C263.00949964 189.59587982 252.47585915 162.49161509 228.28572083 137.72552109 C227.52259583 136.90052109 226.75947083 136.07552109 225.97322083 135.22552109 C213.68721045 122.27540204 198.6629555 112.58300998 183.28572083 103.72552109 C182.68679016 103.37183456 182.0878595 103.01814804 181.47077942 102.65374374 C117.29123061 64.91080083 32.95560572 59.15073964 -38.10466003 77.22039413 C-79.17441338 88.18347898 -122.36965025 107.98108539 -149.71427917 141.72552109 C-150.48513855 142.65880234 -151.25599792 143.59208359 -152.05021667 144.55364609 C-164.64081202 160.12042301 -173.71525628 178.32931227 -178.71427917 197.72552109 C-179.01463074 198.88181015 -179.3149823 200.03809921 -179.62443542 201.22942734 C-186.46610553 232.76475328 -182.49138179 270.22626545 -165.08000183 297.69622421 C-160.77878992 304.08729919 -155.78357418 309.93762495 -150.71427917 315.72552109 C-149.94180847 316.60965683 -149.94180847 316.60965683 -149.1537323 317.5116539 C-138.98903172 329.04342168 -127.76447378 339.18622451 -115.71427917 348.72552109 C-115.06185242 349.24517441 -114.40942566 349.76482773 -113.73722839 350.30022812 C-103.99692049 358.04252415 -94.10945486 365.44266735 -83.76359558 372.35589218 C-81.63170355 373.78070923 -79.50678645 375.21554762 -77.38224792 376.65130234 C-46.26573866 397.61421902 -13.74196529 416.2223082 18.99153137 434.51726913 C29.12823569 440.18655464 39.21662476 445.9371703 49.28572083 451.72552109 C50.26556946 452.28819687 51.24541809 452.85087265 52.25495911 453.43059921 C84.58702362 472.00509757 116.73914721 490.83914771 148.28572083 510.72552109 C149.70618713 511.6195665 149.70618713 511.6195665 151.15534973 512.53167343 C170.15243391 524.50112563 188.86141566 536.89159495 207.28572083 549.72552109 C208.28949768 550.42427353 208.28949768 550.42427353 209.31355286 551.13714218 C230.68735559 566.04686963 251.30488457 581.77010099 271.48152161 598.25335312 C273.06845128 599.5482362 274.65920819 600.83842587 276.25056458 602.12786484 C287.20219283 611.02103727 297.86128332 620.20300008 308.17243958 629.83098984 C310.09537926 631.62648093 312.03300264 633.39516323 313.99275208 635.15130234 C321.08558491 641.51354295 327.85412862 648.18575608 334.59822083 654.91302109 C335.07443878 655.38665085 335.55065674 655.86028061 336.04130554 656.34826279 C341.1363081 661.4214144 346.11827743 666.53454666 350.79914856 671.99383163 C352.8613397 674.39605232 355.01258626 676.7126835 357.16072083 679.03802109 C362.07766413 684.44222904 366.74660772 690.00214688 371.28572083 695.72552109 C371.80150696 696.37408066 372.31729309 697.02264023 372.84870911 697.69085312 C389.38656216 718.54583558 404.47084819 740.269936 417.17488098 763.68889999 C418.31383204 765.77706037 419.47717643 767.85046365 420.64118958 769.92473984 C466.27308248 852.49368892 471.75904634 952.04507191 446.03572083 1041.66302109 C431.12127702 1091.8199588 407.81604226 1138.91709668 376.28572083 1180.72552109 C375.7257843 1181.46947128 375.16584778 1182.21342148 374.58894348 1182.97991562 C364.85987791 1195.87196251 354.86384002 1208.51727298 344.28572083 1220.72552109 C343.81118469 1221.27675644 343.33664856 1221.82799179 342.84773254 1222.39593124 C334.27943053 1232.27662652 324.48339498 1242.46849533 312.28572083 1247.72552109 C311.29572083 1247.72552109 310.30572083 1247.72552109 309.28572083 1247.72552109 C310.54054882 1244.3660928 311.96454274 1241.45118106 313.93806458 1238.45989609 C314.46142395 1237.6617247 314.98478333 1236.86355331 315.52400208 1236.04119492 C316.36511536 1234.77118637 316.36511536 1234.77118637 317.22322083 1233.47552109 C318.0972052 1232.13880356 318.0972052 1232.13880356 318.98884583 1230.77508163 C321.67569176 1226.66761713 324.38123023 1222.57467758 327.13337708 1218.51067734 C371.96536636 1151.7704726 386.93250314 1068.66187746 372.62458801 990.09514999 C362.27716031 937.54573107 341.03738823 887.23922931 311.28572083 842.72552109 C310.82745911 842.03603378 310.36919739 841.34654648 309.89704895 840.63616562 C300.43220337 826.45567889 290.26465454 812.77107762 279.28572083 799.72552109 C278.62950745 798.93395615 278.62950745 798.93395615 277.96003723 798.12639999 C270.67665963 789.34432252 262.95182548 781.16987995 254.7915802 773.19866562 C251.52612176 770.00414937 248.31492547 766.75753786 245.12165833 763.49114609 C238.95495078 757.20981242 232.75920441 751.24896102 225.84040833 745.78411484 C223.34399076 743.7724756 221.00669284 741.65956574 218.66072083 739.47552109 C212.43068988 733.80737585 205.70692915 728.78898275 198.9712677 723.74383163 C196.89818094 722.1858127 194.83335054 720.6185801 192.77204895 719.04510117 C183.08980828 711.68125726 173.17449857 704.75665826 163.03572083 698.03802109 C162.26013824 697.5224968 161.48455566 697.0069725 160.68547058 696.47582626 C138.14478505 681.50930587 115.01405775 667.73457987 91.28572083 654.72552109 C90.34438293 654.2060289 89.40304504 653.68653671 88.43318176 653.15130234 C50.46757896 632.21021959 11.52956799 613.006326 -27.85490417 594.88958359 C-32.70931382 592.65655515 -37.55182267 590.39999445 -42.38615417 588.12395859 C-43.3673246 587.66207893 -43.3673246 587.66207893 -44.36831665 587.19086838 C-45.7055596 586.56129344 -47.04279403 585.9317004 -48.38002014 585.30208969 C-59.91042483 579.87514666 -71.47810833 574.539861 -83.08927917 569.28802109 C-100.04915976 561.6120778 -116.90647017 553.72862399 -133.71427917 545.72552109 C-134.43027283 545.38502731 -135.14626648 545.04453354 -135.88395691 544.69372177 C-152.88215161 536.60725279 -169.71183881 528.36708799 -186.13713074 519.15667343 C-188.8135112 517.67041517 -191.5065775 516.21937932 -194.20646667 514.77630234 C-225.98488439 497.76319204 -257.95760386 477.98078672 -284.65177917 453.53802109 C-285.15910583 453.07540878 -285.6664325 452.61279648 -286.18913269 452.13616562 C-301.58405573 437.76286208 -313.40603525 419.93310216 -323.71427917 401.72552109 C-324.43790074 400.48574113 -325.16182972 399.24614052 -325.88615417 398.00677109 C-358.15845789 340.69115968 -364.85148139 268.15505282 -347.90666199 205.10564804 C-333.29244925 153.53454476 -303.46281347 104.77108068 -260.71427917 71.72552109 C-259.44956726 70.72080222 -258.18527388 69.71555638 -256.92131042 68.70989609 C-219.440717 39.16428341 -175.86718667 22.45208453 -129.96427917 10.78802109 C-129.21872772 10.5962529 -128.47317627 10.40448471 -127.70503235 10.20690536 C-117.43172162 7.582367 -107.28426271 5.76077748 -96.71427917 4.72552109 C-95.88956116 4.64365555 -95.06484314 4.56179001 -94.21513367 4.4774437 C-88.60604316 3.92721752 -82.99407911 3.4149131 -77.37980652 2.92058945 C-74.48171492 2.66456143 -71.58433464 2.40136494 -68.68693542 2.13763046 C-63.03219528 1.62941656 -57.3750569 1.16124405 -51.71427917 0.72552109 C-50.92433563 0.66417984 -50.13439209 0.60283859 -49.32051086 0.53963852 C-32.90184822 -0.66977924 -16.4461263 -0.2673945 0 0 Z " fill="#337132" transform="translate(1478.7142791748047,508.2744789123535)"/>
<path d="M0 0 C1.69067383 1.90405273 1.69067383 1.90405273 3.20703125 4.43359375 C3.78509521 5.37904053 4.36315918 6.3244873 4.95874023 7.29858398 C5.57048096 8.33442627 6.18222168 9.37026855 6.8125 10.4375 C7.46484619 11.51136963 8.11719238 12.58523926 8.78930664 13.69165039 C10.17296525 15.97056897 11.55102538 18.25192503 12.92089844 20.5390625 C16.21460041 26.03279885 19.57954737 31.48289469 22.9375 36.9375 C23.9265332 38.54890869 23.9265332 38.54890869 24.93554688 40.19287109 C33.04113689 53.37331667 41.36864672 66.41850708 49.8515625 79.359375 C67.693085 106.59783227 84.28974946 134.76685206 99.25 163.6875 C99.56487366 164.29560516 99.87974731 164.90371033 100.2041626 165.53024292 C110.24147802 184.96823027 110.24147802 184.96823027 109.3125 188.9375 C108.879375 189.618125 108.44625 190.29875 108 191 C107.67 191.66 107.34 192.32 107 193 C104.39261471 193.39383478 101.87051124 193.66071157 99.24609375 193.8515625 C98.47064713 193.91532074 97.6952005 193.97907898 96.89625549 194.04476929 C94.41062564 194.24707727 91.92418646 194.43616807 89.4375 194.625 C87.75578979 194.75954975 86.07414781 194.89495521 84.39257812 195.03125 C80.26244605 195.36411429 76.13154097 195.68512578 72 196 C71.22816965 194.31295579 70.45759075 192.62533901 69.6875 190.9375 C69.04361328 189.52791016 69.04361328 189.52791016 68.38671875 188.08984375 C67.41017322 185.91393527 66.45914954 183.72648271 65.52685547 181.53125 C63.23575091 176.23247539 60.65367129 171.08282277 58.07910156 165.91796875 C56.84699519 163.44114488 55.62855383 160.95768154 54.41261292 158.47288513 C53.75629102 157.17667191 53.07140652 155.89460579 52.36167908 154.62684631 C50.04812658 150.44773675 48.56956055 146.57027355 47.36157227 141.93920898 C45.08180283 134.74578662 42.54601811 129.13900375 36 125 C21.44266652 120.42533304 4.23264635 122.44542215 -10.78527832 122.95715332 C-16.67029679 123.13291975 -22.5561959 123.17689929 -28.44335938 123.23242188 C-39.96683137 123.36030853 -51.48181816 123.63350217 -63 124 C-63.30339294 124.77479706 -63.60678589 125.54959412 -63.91937256 126.34786987 C-65.02016202 129.04948264 -66.31518377 131.47793965 -67.765625 134.0078125 C-68.31919678 134.98129639 -68.87276855 135.95478027 -69.44311523 136.95776367 C-70.03938721 138.00295166 -70.63565918 139.04813965 -71.25 140.125 C-81.41666728 158.10667101 -90.88580957 176.46324427 -100 195 C-102.0836309 194.85848172 -104.16689938 194.71162064 -106.25 194.5625 C-107.99023438 194.44068359 -107.99023438 194.44068359 -109.765625 194.31640625 C-112.31968011 194.06655303 -114.57946589 193.82582928 -117 193 C-119.02850695 190.48851521 -119.00714124 189.09249053 -118.7578125 185.86328125 C-117.89681268 181.47395744 -116.43324321 177.85055119 -114.5625 173.8125 C-114.20760498 173.03350342 -113.85270996 172.25450684 -113.48706055 171.4519043 C-100.74094162 143.73827097 -85.67691676 117.11574855 -68.59423828 91.84399414 C-66.2094032 88.31466248 -63.84387529 84.77286259 -61.484375 81.2265625 C-58.14640344 76.21384232 -54.79994591 71.20693653 -51.44490051 66.20562744 C-34.36702438 40.74569006 -34.36702438 40.74569006 -17.953125 14.85546875 C-17.46263672 14.05931152 -16.97214844 13.2631543 -16.46679688 12.44287109 C-15.42454612 10.70705866 -14.41326188 8.95248705 -13.42382812 7.18603516 C-12.64942383 5.81970947 -12.64942383 5.81970947 -11.859375 4.42578125 C-11.1782666 3.1888855 -11.1782666 3.1888855 -10.48339844 1.92700195 C-9 0 -9 0 -7.13378906 -0.83911133 C-4.44348822 -1.04196124 -2.56546693 -0.87901173 0 0 Z M-13 47 C-14.51906281 49.33536727 -15.98751307 51.68458659 -17.4375 54.0625 C-20.76737366 59.45738388 -24.14761163 64.80292056 -27.6875 70.0625 C-32.18750311 76.76445535 -36.637053 83.49856442 -41.0625 90.25 C-41.73047607 91.26328369 -42.39845215 92.27656738 -43.08666992 93.32055664 C-43.70904541 94.2718042 -44.3314209 95.22305176 -44.97265625 96.203125 C-45.81195679 97.48171387 -45.81195679 97.48171387 -46.66821289 98.78613281 C-48.1355165 101.04312692 -48.1355165 101.04312692 -49 104 C-24.91 104 -0.82 104 24 104 C20.46162868 97.51298591 17.05489722 91.30019919 13 85.1875 C12.04852246 83.7363039 11.0980559 82.2844446 10.1484375 80.83203125 C9.64538086 80.0632666 9.14232422 79.29450195 8.62402344 78.50244141 C4.98388137 72.89338305 1.42591062 67.23100718 -2.140625 61.57495117 C-5.28782977 56.60622912 -8.45946112 51.6992607 -12 47 C-12.33 47 -12.66 47 -13 47 Z " fill="#337132" transform="translate(1887,2018)"/>
<path d="M0 0 C1.69067383 1.90405273 1.69067383 1.90405273 3.20703125 4.43359375 C3.78509521 5.37904053 4.36315918 6.3244873 4.95874023 7.29858398 C5.57048096 8.33442627 6.18222168 9.37026855 6.8125 10.4375 C7.46484619 11.51136963 8.11719238 12.58523926 8.78930664 13.69165039 C10.17296525 15.97056897 11.55102538 18.25192503 12.92089844 20.5390625 C16.21460041 26.03279885 19.57954737 31.48289469 22.9375 36.9375 C23.9265332 38.54890869 23.9265332 38.54890869 24.93554688 40.19287109 C33.04113689 53.37331667 41.36864672 66.41850708 49.8515625 79.359375 C67.693085 106.59783227 84.28974946 134.76685206 99.25 163.6875 C99.56487366 164.29560516 99.87974731 164.90371033 100.2041626 165.53024292 C110.24147802 184.96823027 110.24147802 184.96823027 109.3125 188.9375 C108.879375 189.618125 108.44625 190.29875 108 191 C107.67 191.66 107.34 192.32 107 193 C104.39261471 193.39383478 101.87051124 193.66071157 99.24609375 193.8515625 C98.47064713 193.91532074 97.6952005 193.97907898 96.89625549 194.04476929 C94.41062564 194.24707727 91.92418646 194.43616807 89.4375 194.625 C87.75578979 194.75954975 86.07414781 194.89495521 84.39257812 195.03125 C80.26244605 195.36411429 76.13154097 195.68512578 72 196 C71.22816965 194.31295579 70.45759075 192.62533901 69.6875 190.9375 C69.04361328 189.52791016 69.04361328 189.52791016 68.38671875 188.08984375 C67.41017322 185.91393527 66.45914954 183.72648271 65.52685547 181.53125 C63.23575091 176.23247539 60.65367129 171.08282277 58.07910156 165.91796875 C56.84699519 163.44114488 55.62855383 160.95768154 54.41261292 158.47288513 C53.75629102 157.17667191 53.07140652 155.89460579 52.36167908 154.62684631 C50.04812658 150.44773675 48.56956055 146.57027355 47.36157227 141.93920898 C45.08180283 134.74578662 42.54601811 129.13900375 36 125 C21.44266652 120.42533304 4.23264635 122.44542215 -10.78527832 122.95715332 C-16.67029679 123.13291975 -22.5561959 123.17689929 -28.44335938 123.23242188 C-39.96683137 123.36030853 -51.48181816 123.63350217 -63 124 C-63.30339294 124.77479706 -63.60678589 125.54959412 -63.91937256 126.34786987 C-65.02016202 129.04948264 -66.31518377 131.47793965 -67.765625 134.0078125 C-68.31919678 134.98129639 -68.87276855 135.95478027 -69.44311523 136.95776367 C-70.03938721 138.00295166 -70.63565918 139.04813965 -71.25 140.125 C-81.41666728 158.10667101 -90.88580957 176.46324427 -100 195 C-102.0836309 194.85848172 -104.16689938 194.71162064 -106.25 194.5625 C-107.99023438 194.44068359 -107.99023438 194.44068359 -109.765625 194.31640625 C-112.31968011 194.06655303 -114.57946589 193.82582928 -117 193 C-119.02850695 190.48851521 -119.00714124 189.09249053 -118.7578125 185.86328125 C-117.89681268 181.47395744 -116.43324321 177.85055119 -114.5625 173.8125 C-114.20760498 173.03350342 -113.85270996 172.25450684 -113.48706055 171.4519043 C-100.74094162 143.73827097 -85.67691676 117.11574855 -68.59423828 91.84399414 C-66.2094032 88.31466248 -63.84387529 84.77286259 -61.484375 81.2265625 C-58.14640344 76.21384232 -54.79994591 71.20693653 -51.44490051 66.20562744 C-34.36702438 40.74569006 -34.36702438 40.74569006 -17.953125 14.85546875 C-17.46263672 14.05931152 -16.97214844 13.2631543 -16.46679688 12.44287109 C-15.42454612 10.70705866 -14.41326188 8.95248705 -13.42382812 7.18603516 C-12.64942383 5.81970947 -12.64942383 5.81970947 -11.859375 4.42578125 C-11.1782666 3.1888855 -11.1782666 3.1888855 -10.48339844 1.92700195 C-9 0 -9 0 -7.13378906 -0.83911133 C-4.44348822 -1.04196124 -2.56546693 -0.87901173 0 0 Z M-13 47 C-14.51906281 49.33536727 -15.98751307 51.68458659 -17.4375 54.0625 C-20.76737366 59.45738388 -24.14761163 64.80292056 -27.6875 70.0625 C-32.18750311 76.76445535 -36.637053 83.49856442 -41.0625 90.25 C-41.73047607 91.26328369 -42.39845215 92.27656738 -43.08666992 93.32055664 C-43.70904541 94.2718042 -44.3314209 95.22305176 -44.97265625 96.203125 C-45.81195679 97.48171387 -45.81195679 97.48171387 -46.66821289 98.78613281 C-48.1355165 101.04312692 -48.1355165 101.04312692 -49 104 C-24.91 104 -0.82 104 24 104 C20.46162868 97.51298591 17.05489722 91.30019919 13 85.1875 C12.04852246 83.7363039 11.0980559 82.2844446 10.1484375 80.83203125 C9.64538086 80.0632666 9.14232422 79.29450195 8.62402344 78.50244141 C4.98388137 72.89338305 1.42591062 67.23100718 -2.140625 61.57495117 C-5.28782977 56.60622912 -8.45946112 51.6992607 -12 47 C-12.33 47 -12.66 47 -13 47 Z " fill="#337132" transform="translate(1526,2018)"/>
<path d="M0 0 C1.69067383 1.90405273 1.69067383 1.90405273 3.20703125 4.43359375 C3.78509521 5.37904053 4.36315918 6.3244873 4.95874023 7.29858398 C5.57048096 8.33442627 6.18222168 9.37026855 6.8125 10.4375 C7.46484619 11.51136963 8.11719238 12.58523926 8.78930664 13.69165039 C10.17296525 15.97056897 11.55102538 18.25192503 12.92089844 20.5390625 C16.21460041 26.03279885 19.57954737 31.48289469 22.9375 36.9375 C23.9265332 38.54890869 23.9265332 38.54890869 24.93554688 40.19287109 C33.04113689 53.37331667 41.36864672 66.41850708 49.8515625 79.359375 C67.693085 106.59783227 84.28974946 134.76685206 99.25 163.6875 C99.56487366 164.29560516 99.87974731 164.90371033 100.2041626 165.53024292 C110.24147802 184.96823027 110.24147802 184.96823027 109.3125 188.9375 C108.879375 189.618125 108.44625 190.29875 108 191 C107.67 191.66 107.34 192.32 107 193 C104.39261471 193.39383478 101.87051124 193.66071157 99.24609375 193.8515625 C98.47064713 193.91532074 97.6952005 193.97907898 96.89625549 194.04476929 C94.41062564 194.24707727 91.92418646 194.43616807 89.4375 194.625 C87.75578979 194.75954975 86.07414781 194.89495521 84.39257812 195.03125 C80.26244605 195.36411429 76.13154097 195.68512578 72 196 C71.22816965 194.31295579 70.45759075 192.62533901 69.6875 190.9375 C69.04361328 189.52791016 69.04361328 189.52791016 68.38671875 188.08984375 C67.41017322 185.91393527 66.45914954 183.72648271 65.52685547 181.53125 C63.23575091 176.23247539 60.65367129 171.08282277 58.07910156 165.91796875 C56.84699519 163.44114488 55.62855383 160.95768154 54.41261292 158.47288513 C53.75629102 157.17667191 53.07140652 155.89460579 52.36167908 154.62684631 C50.04812658 150.44773675 48.56956055 146.57027355 47.36157227 141.93920898 C45.08180283 134.74578662 42.54601811 129.13900375 36 125 C21.44266652 120.42533304 4.23264635 122.44542215 -10.78527832 122.95715332 C-16.67029679 123.13291975 -22.5561959 123.17689929 -28.44335938 123.23242188 C-39.96683137 123.36030853 -51.48181816 123.63350217 -63 124 C-63.30339294 124.77479706 -63.60678589 125.54959412 -63.91937256 126.34786987 C-65.02016202 129.04948264 -66.31518377 131.47793965 -67.765625 134.0078125 C-68.31919678 134.98129639 -68.87276855 135.95478027 -69.44311523 136.95776367 C-70.03938721 138.00295166 -70.63565918 139.04813965 -71.25 140.125 C-81.41666728 158.10667101 -90.88580957 176.46324427 -100 195 C-102.0836309 194.85848172 -104.16689938 194.71162064 -106.25 194.5625 C-107.99023438 194.44068359 -107.99023438 194.44068359 -109.765625 194.31640625 C-112.31968011 194.06655303 -114.57946589 193.82582928 -117 193 C-119.02850695 190.48851521 -119.00714124 189.09249053 -118.7578125 185.86328125 C-117.89681268 181.47395744 -116.43324321 177.85055119 -114.5625 173.8125 C-114.20760498 173.03350342 -113.85270996 172.25450684 -113.48706055 171.4519043 C-100.74094162 143.73827097 -85.67691676 117.11574855 -68.59423828 91.84399414 C-66.2094032 88.31466248 -63.84387529 84.77286259 -61.484375 81.2265625 C-58.14640344 76.21384232 -54.79994591 71.20693653 -51.44490051 66.20562744 C-34.36702438 40.74569006 -34.36702438 40.74569006 -17.953125 14.85546875 C-17.46263672 14.05931152 -16.97214844 13.2631543 -16.46679688 12.44287109 C-15.42454612 10.70705866 -14.41326188 8.95248705 -13.42382812 7.18603516 C-12.64942383 5.81970947 -12.64942383 5.81970947 -11.859375 4.42578125 C-11.1782666 3.1888855 -11.1782666 3.1888855 -10.48339844 1.92700195 C-9 0 -9 0 -7.13378906 -0.83911133 C-4.44348822 -1.04196124 -2.56546693 -0.87901173 0 0 Z M-13 47 C-14.51906281 49.33536727 -15.98751307 51.68458659 -17.4375 54.0625 C-20.76737366 59.45738388 -24.14761163 64.80292056 -27.6875 70.0625 C-32.18750311 76.76445535 -36.637053 83.49856442 -41.0625 90.25 C-41.73047607 91.26328369 -42.39845215 92.27656738 -43.08666992 93.32055664 C-43.70904541 94.2718042 -44.3314209 95.22305176 -44.97265625 96.203125 C-45.81195679 97.48171387 -45.81195679 97.48171387 -46.66821289 98.78613281 C-48.1355165 101.04312692 -48.1355165 101.04312692 -49 104 C-24.91 104 -0.82 104 24 104 C20.46162868 97.51298591 17.05489722 91.30019919 13 85.1875 C12.04852246 83.7363039 11.0980559 82.2844446 10.1484375 80.83203125 C9.64538086 80.0632666 9.14232422 79.29450195 8.62402344 78.50244141 C4.98388137 72.89338305 1.42591062 67.23100718 -2.140625 61.57495117 C-5.28782977 56.60622912 -8.45946112 51.6992607 -12 47 C-12.33 47 -12.66 47 -13 47 Z " fill="#337132" transform="translate(957,2018)"/>
<path d="M0 0 C2.01913933 2.86003998 1.76757342 3.82220371 1.23828125 7.22265625 C0.91454642 17.49501135 6.92352104 26.47478893 11.61328125 35.28515625 C12.08910645 36.18089355 12.56493164 37.07663086 13.05517578 37.99951172 C15.99919667 43.50642133 19.01285977 48.97295233 22.04248047 54.43310547 C23.63962185 57.332982 25.21048876 60.24562757 26.7734375 63.1640625 C33.24623317 75.24720716 39.96380886 87.15037654 46.9140625 98.96484375 C51.72542697 107.15445574 56.41544979 115.41320573 61.10864258 123.67089844 C64.86049745 130.26097136 68.67533711 136.80441485 72.61328125 143.28515625 C76.49791897 138.79152544 79.33658245 133.84055223 82.30078125 128.72265625 C87.08840631 120.53144746 91.96065697 112.3973148 96.90887451 104.30230713 C108.41649548 85.462604 119.41870243 66.34735198 130.11328125 47.03515625 C130.44103546 46.44485626 130.76878967 45.85455627 131.10647583 45.24636841 C133.30779867 41.27633778 135.46398321 37.28352477 137.61328125 33.28515625 C137.94622192 32.69044525 138.2791626 32.09573425 138.62219238 31.48300171 C142.75420142 24.10189681 145.78002557 18.19714193 144.36328125 9.59765625 C143.31181381 1.84146127 143.31181381 1.84146127 144.69921875 -0.71875 C147.39797089 -2.12320264 149.45248281 -2.03906865 152.48828125 -1.96484375 C153.63941406 -1.93777344 154.79054688 -1.91070313 155.9765625 -1.8828125 C171.53426813 -1.16425037 171.53426813 -1.16425037 176.61328125 0.28515625 C177.11705893 2.5551545 177.61618144 4.82618628 178.11328125 7.09765625 C178.5309375 8.99451172 178.5309375 8.99451172 178.95703125 10.9296875 C179.61328125 14.28515625 179.61328125 14.28515625 179.61328125 17.28515625 C177.88122699 18.05598182 176.12584623 18.77440935 174.36328125 19.47265625 C164.65840493 24.8768957 161.58998218 35.40510919 157.13867188 45.08056641 C154.79286101 50.00872157 152.14033998 54.74006219 149.42578125 59.47265625 C148.89460693 60.40150635 148.36343262 61.33035645 147.81616211 62.28735352 C146.08985845 65.29130978 144.35252646 68.28867589 142.61328125 71.28515625 C141.95666504 72.42146484 141.30004883 73.55777344 140.62353516 74.72851562 C132.72907193 88.38461624 124.6812526 101.92047881 116.2734375 115.26855469 C105.35253122 132.60980429 94.79961411 150.17459842 84.42578125 167.84765625 C84.07356506 168.44685883 83.72134888 169.0460614 83.35845947 169.66342163 C78.97250208 177.13213874 74.70911032 184.65329032 70.61328125 192.28515625 C67.64328125 192.28515625 64.67328125 192.28515625 61.61328125 192.28515625 C61.14921875 191.455 60.68515625 190.62484375 60.20703125 189.76953125 C57.68623838 185.2688342 55.15012309 180.77682135 52.61328125 176.28515625 C52.04480469 175.27710937 51.47632813 174.2690625 50.890625 173.23046875 C42.4080327 158.21033716 33.6988736 143.35858961 24.70594788 128.63868713 C14.359805 111.70328186 4.38347833 94.55839467 -5.38671875 77.28515625 C-5.8048584 76.54942383 -6.22299805 75.81369141 -6.65380859 75.05566406 C-12.87206212 64.10052766 -18.72095302 52.96405778 -24.47802734 41.76123047 C-26.10510947 38.59769204 -27.74320087 35.4401815 -29.38671875 32.28515625 C-29.84119385 31.39981201 -30.29566895 30.51446777 -30.76391602 29.60229492 C-32.93993691 25.48887573 -34.72576461 22.34917678 -38.69921875 19.72265625 C-39.39660156 19.24699219 -40.09398437 18.77132813 -40.8125 18.28125 C-41.33199219 17.95253906 -41.85148437 17.62382813 -42.38671875 17.28515625 C-42.07767704 15.01384969 -41.76436968 12.7431232 -41.44921875 10.47265625 C-41.27519531 9.20808594 -41.10117188 7.94351562 -40.921875 6.640625 C-40.38671875 3.28515625 -40.38671875 3.28515625 -39.38671875 0.28515625 C-4.34308281 -3.12048012 -4.34308281 -3.12048012 0 0 Z " fill="#337132" transform="translate(1271.38671875,2026.71484375)"/>
<path d="M0 0 C0.82242187 0.43441406 1.64484375 0.86882812 2.4921875 1.31640625 C8.52387609 4.80429574 13.44773067 9.06525864 18.375 13.9375 C18.95789795 14.51032715 19.5407959 15.0831543 20.14135742 15.67333984 C28.20753394 23.90337328 28.20753394 23.90337328 30 29 C28.6982425 32.88433388 26.557133 34.12782474 23 36 C22.04480469 35.20335938 21.08960938 34.40671875 20.10546875 33.5859375 C1.85182409 18.53202145 -18.90694935 9.62325425 -43 11 C-54.46970605 12.67296083 -65.38478362 17.02940461 -72.79296875 26.16796875 C-74.99218573 29.50593886 -75.1859651 32.47954352 -75.25 36.375 C-75.28867188 37.77878906 -75.28867188 37.77878906 -75.328125 39.2109375 C-74.83906408 43.3679553 -73.26208344 45.91001885 -70.109375 48.6328125 C-63.84524006 52.59456672 -57.34722194 55.82283028 -50.65234375 58.984375 C-48.58922568 59.96538464 -46.52624212 60.94667721 -44.46337891 61.92822266 C-43.39863342 62.43395813 -42.33388794 62.9396936 -41.23687744 63.46075439 C-32.80488423 67.47045471 -24.39054409 71.51624051 -15.98901367 75.58935547 C-13.85396611 76.62151665 -11.71654821 77.64878772 -9.5769043 78.67138672 C26.17891765 95.7716444 26.17891765 95.7716444 33.2734375 112.921875 C36.92460343 123.36499477 35.27886079 133.98243179 31 144 C28.96074534 147.6141246 26.6503341 150.81167072 24 154 C23.24976563 154.91845703 23.24976563 154.91845703 22.484375 155.85546875 C9.13863252 170.58296739 -15.41137854 181.00998102 -34.96582031 182.17700195 C-49.83135044 182.46969477 -63.72660226 182.41521791 -78 178 C-79.76150391 177.50886719 -79.76150391 177.50886719 -81.55859375 177.0078125 C-92.92013639 173.341072 -103.08844686 164.41756218 -109 154 C-111.38913682 148.83238553 -112.69051423 144.63504745 -111 139 C-110 138 -110 138 -106.375 137.4375 C-103.59423852 137.47195191 -102.40554485 137.6410695 -100.30078125 139.50390625 C-99.17375857 140.89835804 -98.05738284 142.30145239 -96.94921875 143.7109375 C-89.61237037 152.32695584 -79.42717869 156.42561778 -69 160 C-67.36804687 160.56460938 -67.36804687 160.56460938 -65.703125 161.140625 C-49.80080404 164.83103704 -31.62866351 162.22892845 -17.34765625 154.48046875 C-9.79077773 149.71498296 -2.90567287 144.71701862 0 136 C0.68073001 128.9918287 0.51763017 123.55835412 -4 118 C-8.82973392 113.1415338 -14.21116458 110.04409437 -20.32421875 107.05859375 C-21.21583206 106.61363556 -22.10744537 106.16867737 -23.02607727 105.7102356 C-25.90826953 104.27575412 -28.79756977 102.85631853 -31.6875 101.4375 C-33.67929682 100.45031356 -35.67083195 99.46259894 -37.66210938 98.47436523 C-49.75612725 92.49024771 -61.90418743 86.63303984 -74.22143555 81.12084961 C-88.21683656 74.8040217 -100.50148272 68.52767707 -107 54 C-110.14607492 44.46158178 -108.35981105 33.78774415 -104 25 C-95.52669779 8.980163 -79.00707062 0.17102063 -62.25 -5 C-42.27362248 -10.96588495 -18.54430205 -10.16173009 0 0 Z " fill="#337132" transform="translate(1188,2031)"/>
<path d="M0 0 C0.82242188 0.43441406 1.64484375 0.86882812 2.4921875 1.31640625 C8.52387609 4.80429574 13.44773067 9.06525864 18.375 13.9375 C18.95789795 14.51032715 19.5407959 15.0831543 20.14135742 15.67333984 C28.20753394 23.90337328 28.20753394 23.90337328 30 29 C28.6982425 32.88433388 26.557133 34.12782474 23 36 C22.04480469 35.20335938 21.08960938 34.40671875 20.10546875 33.5859375 C1.85182409 18.53202145 -18.90694935 9.62325425 -43 11 C-54.46970605 12.67296083 -65.38478362 17.02940461 -72.79296875 26.16796875 C-74.99218573 29.50593886 -75.1859651 32.47954352 -75.25 36.375 C-75.28867187 37.77878906 -75.28867187 37.77878906 -75.328125 39.2109375 C-74.83906408 43.3679553 -73.26208344 45.91001885 -70.109375 48.6328125 C-63.84524006 52.59456672 -57.34722194 55.82283028 -50.65234375 58.984375 C-48.58922568 59.96538464 -46.52624212 60.94667721 -44.46337891 61.92822266 C-43.39863342 62.43395813 -42.33388794 62.9396936 -41.23687744 63.46075439 C-32.80488423 67.47045471 -24.39054409 71.51624051 -15.98901367 75.58935547 C-13.85396611 76.62151665 -11.71654821 77.64878772 -9.5769043 78.67138672 C26.17891765 95.7716444 26.17891765 95.7716444 33.2734375 112.921875 C36.92460343 123.36499477 35.27886079 133.98243179 31 144 C28.96074534 147.6141246 26.6503341 150.81167072 24 154 C23.24976563 154.91845703 23.24976563 154.91845703 22.484375 155.85546875 C9.13863252 170.58296739 -15.41137854 181.00998102 -34.96582031 182.17700195 C-49.83135044 182.46969477 -63.72660226 182.41521791 -78 178 C-79.76150391 177.50886719 -79.76150391 177.50886719 -81.55859375 177.0078125 C-92.92013639 173.341072 -103.08844686 164.41756218 -109 154 C-111.38913682 148.83238553 -112.69051423 144.63504745 -111 139 C-110 138 -110 138 -106.375 137.4375 C-103.59423852 137.47195191 -102.40554485 137.6410695 -100.30078125 139.50390625 C-99.17375857 140.89835804 -98.05738284 142.30145239 -96.94921875 143.7109375 C-89.61237037 152.32695584 -79.42717869 156.42561778 -69 160 C-67.36804688 160.56460938 -67.36804688 160.56460938 -65.703125 161.140625 C-49.80080404 164.83103704 -31.62866351 162.22892845 -17.34765625 154.48046875 C-9.79077773 149.71498296 -2.90567287 144.71701862 0 136 C0.68073001 128.9918287 0.51763017 123.55835412 -4 118 C-8.82973392 113.1415338 -14.21116458 110.04409437 -20.32421875 107.05859375 C-21.21583206 106.61363556 -22.10744537 106.16867737 -23.02607727 105.7102356 C-25.90826953 104.27575412 -28.79756977 102.85631853 -31.6875 101.4375 C-33.67929682 100.45031356 -35.67083195 99.46259894 -37.66210938 98.47436523 C-49.75612725 92.49024771 -61.90418743 86.63303984 -74.22143555 81.12084961 C-88.21683656 74.8040217 -100.50148272 68.52767707 -107 54 C-110.14607492 44.46158178 -108.35981105 33.78774415 -104 25 C-95.52669779 8.980163 -79.00707062 0.17102063 -62.25 -5 C-42.27362248 -10.96588495 -18.54430205 -10.16173009 0 0 Z " fill="#337132" transform="translate(794,2031)"/>
<path d="M0 0 C1.3644259 -0.00685461 2.72885155 -0.01375795 4.09327698 -0.02070618 C8.42156192 -0.03957707 12.74980458 -0.04410235 17.078125 -0.046875 C18.17886667 -0.0484215 18.17886667 -0.0484215 19.30184555 -0.04999924 C70.94673629 -0.11822328 70.94673629 -0.11822328 91.328125 4.203125 C91.77268128 6.11351552 92.18285553 8.03193155 92.578125 9.953125 C92.81015625 11.02046875 93.0421875 12.0878125 93.28125 13.1875 C93.328125 16.203125 93.328125 16.203125 91.8203125 18.6015625 C88.49573486 20.73804656 85.97598721 20.47850321 82.203125 20.078125 C80.61474324 19.94854558 79.02618269 19.82114875 77.4375 19.6953125 C76.50873047 19.61635742 75.57996094 19.53740234 74.62304688 19.45605469 C70.65733485 19.15163281 66.69011854 18.92677563 62.71875 18.7109375 C61.58175156 18.64844315 61.58175156 18.64844315 60.42178345 18.58468628 C57.32662872 18.41472503 54.23144623 18.24530004 51.13616943 18.07757568 C48.93168683 17.95663076 46.72755752 17.83048668 44.5234375 17.703125 C43.23453613 17.6309375 41.94563477 17.55875 40.61767578 17.484375 C38.01536661 17.26188278 35.82596753 16.87466524 33.328125 16.203125 C33.39868103 17.14448303 33.46923706 18.08584106 33.54193115 19.0557251 C34.48975745 32.94294622 34.46488629 46.82609083 34.46622467 60.73912811 C34.46738345 65.14450176 34.48034697 69.54979515 34.49578857 73.95513916 C34.49836143 74.70420902 34.50093428 75.45327888 34.5035851 76.22504783 C34.50884872 77.75386818 34.5141342 79.28268845 34.51944113 80.81150866 C34.55437063 91.0371148 34.58108631 101.26261005 34.57861328 111.48828125 C34.57702439 118.4323942 34.5930434 125.37622247 34.62931991 132.32024407 C34.64773141 135.98119775 34.65716236 139.64167587 34.64484406 143.30266571 C34.63127779 147.37111913 34.65633081 151.43845788 34.68457031 155.50683594 C34.67437363 156.70998444 34.66417694 157.91313293 34.65367126 159.15274048 C34.54156986 165.72777612 34.54156986 165.72777612 37.93084717 171.05914307 C40.328125 174.203125 40.328125 174.203125 39.328125 189.203125 C23.818125 189.203125 8.308125 189.203125 -7.671875 189.203125 C-7.671875 173.203125 -7.671875 173.203125 -2.671875 167.203125 C-1.95855023 164.81475055 -1.95855023 164.81475055 -2.07733154 162.39596558 C-2.07190338 161.48052979 -2.06647522 160.56509399 -2.06088257 159.62191772 C-2.08042999 158.63406281 -2.09997742 157.64620789 -2.12011719 156.62841797 C-2.12143143 155.04598297 -2.12143143 155.04598297 -2.12277222 153.43157959 C-2.13136196 149.93561773 -2.1752311 146.44099959 -2.21875 142.9453125 C-2.23064184 140.48423265 -2.24014178 138.02314019 -2.24737549 135.56204224 C-2.27216046 129.05557449 -2.32595482 122.54967503 -2.38684082 116.04345703 C-2.4776837 105.76143543 -2.52315969 95.47903678 -2.57432556 85.19675446 C-2.58725152 82.70036473 -2.60129566 80.20398053 -2.61647034 77.70760345 C-2.73820808 57.51914999 -2.48685726 37.37588385 -1.671875 17.203125 C-2.71835709 17.26468277 -3.76483917 17.32624054 -4.84303284 17.3896637 C-5.85310473 17.44907969 -5.85310473 17.44907969 -6.88358212 17.50969601 C-7.60850636 17.55233861 -8.33343061 17.59498121 -9.08032227 17.63891602 C-9.81239427 17.68197907 -10.54446627 17.72504213 -11.29872227 17.76941013 C-13.47964716 17.89769983 -13.47964716 17.89769983 -15.66057205 18.02598953 C-17.9468104 18.16047414 -20.23304876 18.29495875 -22.51928711 18.42944336 C-23.19633194 18.46961075 -23.87337677 18.50977814 -24.57093811 18.55116272 C-25.98153917 18.63341116 -27.39231574 18.71267653 -28.8032074 18.78977966 C-32.69496522 19.00642707 -36.57222127 19.27412719 -40.45361328 19.63330078 C-41.61105797 19.73004845 -41.61105797 19.73004845 -42.79188538 19.82875061 C-44.26093696 19.952823 -45.72871832 20.09342055 -47.19432068 20.25315857 C-50.51235774 20.51684547 -52.33001105 20.42233726 -55.16381836 18.60522461 C-57.15843233 15.42811487 -56.90232424 13.63656917 -56.421875 9.953125 C-56.29296875 8.87546875 -56.1640625 7.7978125 -56.03125 6.6875 C-55.91265625 5.86765625 -55.7940625 5.0478125 -55.671875 4.203125 C-51.65178713 3.71757184 -47.63068622 3.24093116 -43.609375 2.765625 C-42.49498047 2.63091797 -41.38058594 2.49621094 -40.23242188 2.35742188 C-26.82227031 0.78201725 -13.49703067 0.04704647 0 0 Z " fill="#337132" transform="translate(1683.671875,2024.796875)"/>
<path d="M0 0 C1.1243042 -0.00821777 2.2486084 -0.01643555 3.40698242 -0.02490234 C4.59783447 -0.00637207 5.78868652 0.0121582 7.015625 0.03125 C8.23032471 0.04333496 9.44502441 0.05541992 10.6965332 0.06787109 C23.13209903 0.34110744 36.0409972 1.19412674 45.265625 10.53125 C45.81476562 11.05589844 46.36390625 11.58054687 46.9296875 12.12109375 C54.74364984 20.30073413 55.85723388 29.22622218 55.73608398 40.12670898 C55.3899271 49.97141069 53.12896356 57.60874458 46.171875 64.81640625 C36.0278424 73.9418782 24.07027018 75.03921709 10.92871094 74.92236328 C8.74092247 74.90606599 6.5549252 74.92240363 4.3671875 74.94140625 C2.96874594 74.93942721 1.5703055 74.93559059 0.171875 74.9296875 C-1.08302734 74.92630371 -2.33792969 74.92291992 -3.63085938 74.91943359 C-6.734375 74.53125 -6.734375 74.53125 -8.40309143 73.40870667 C-10.36014674 70.64874882 -10.12292785 68.46457709 -10.13842773 65.10375977 C-10.14529099 64.45625763 -10.15215424 63.80875549 -10.15922546 63.14163208 C-10.17752303 61.00175023 -10.17365201 58.86259953 -10.16796875 56.72265625 C-10.17252939 55.23436748 -10.17783461 53.74608083 -10.18385315 52.25779724 C-10.19279017 49.13816779 -10.19035486 46.01879425 -10.18041992 42.89916992 C-10.168933 38.90294147 -10.18913332 34.90759701 -10.21833706 30.91148472 C-10.23669189 27.83764542 -10.23640806 24.76401821 -10.23069954 21.69013786 C-10.23054621 20.21694639 -10.23659992 18.74374064 -10.24899101 17.27060127 C-10.26388593 15.2092169 -10.25323805 13.14946826 -10.23608398 11.08813477 C-10.23591782 9.91581802 -10.23575165 8.74350128 -10.23558044 7.53565979 C-9.22828303 1.4975486 -5.69867784 0.02549744 0 0 Z M1.265625 11.53125 C1.265625 29.02125 1.265625 46.51125 1.265625 64.53125 C21.87408046 65.34639443 21.87408046 65.34639443 38.8046875 56.046875 C44.19885826 49.92717251 45.14577384 43.44142681 45.265625 35.53125 C44.75582282 28.57528247 42.07813225 22.59911478 37.265625 17.53125 C25.47677275 9.72160024 16.50545223 11.53125 1.265625 11.53125 Z " fill="#99C940" transform="translate(837.734375,2299.46875)"/>
<path d="M0 0 C2.5 0.375 2.5 0.375 4.13198853 1.47277832 C6.18853619 4.33241044 5.8814909 6.69280824 5.88818359 10.18554688 C5.89344055 10.87366959 5.89869751 11.5617923 5.90411377 12.27076721 C5.91731742 14.54532573 5.90857496 16.81918437 5.8984375 19.09375 C5.90045814 20.67411432 5.9033695 22.25447774 5.90713501 23.83483887 C5.91155884 27.14698158 5.9051256 30.45888159 5.89111328 33.77099609 C5.87402114 38.0182909 5.88386204 42.26501702 5.90183067 46.51229095 C5.91266706 49.77565807 5.90922289 53.03889019 5.9014473 56.30226135 C5.89944487 57.86837328 5.90190605 59.43449744 5.90888596 61.00059509 C5.91649831 63.18887843 5.9049006 65.37623861 5.88818359 67.56445312 C5.88579681 68.81005005 5.88341003 70.05564697 5.88095093 71.33898926 C5.5 74.375 5.5 74.375 4.12808228 76.27331543 C1.74161739 77.88817948 0.3194122 77.85636306 -2.5 77.375 C-4.8125 75.375 -4.8125 75.375 -6.5 73.375 C-7.03109375 73.65214844 -7.5621875 73.92929688 -8.109375 74.21484375 C-9.16898438 74.75818359 -9.16898438 74.75818359 -10.25 75.3125 C-10.94609375 75.67214844 -11.6421875 76.03179688 -12.359375 76.40234375 C-20.24447291 79.98517108 -30.28902367 79.45881953 -38.375 76.8125 C-46.41550794 73.44945986 -51.80632058 68.20560037 -55.5 60.375 C-58.26016636 52.11315068 -57.64594573 40.35127793 -53.87890625 32.5546875 C-49.58776392 25.77152201 -44.39287051 21.39934352 -36.69140625 19 C-26.66301148 17.03605488 -16.56879958 17.25452133 -7.5 22.375 C-7.17 22.705 -6.84 23.035 -6.5 23.375 C-6.48541748 22.78485107 -6.47083496 22.19470215 -6.45581055 21.58666992 C-6.38131156 18.91128771 -6.28466005 16.23715108 -6.1875 13.5625 C-6.16494141 12.63373047 -6.14238281 11.70496094 -6.11914062 10.74804688 C-6.08369141 9.85537109 -6.04824219 8.96269531 -6.01171875 8.04296875 C-5.98553467 7.22078857 -5.95935059 6.3986084 -5.93237305 5.55151367 C-5.21361534 1.93337423 -3.59488286 0.53923243 0 0 Z M-42.5 35.375 C-46.36936785 41.89926258 -46.38768284 47.96918886 -45.5 55.375 C-43.68824277 60.62506985 -40.43743227 64.2568118 -35.44921875 66.69140625 C-29.03222047 68.94185655 -22.82180278 68.84758671 -16.5 66.375 C-10.81467865 63.31367312 -7.54908174 59.52224522 -5.5 53.375 C-4.75715695 46.518924 -5.42222795 41.04348189 -9.5 35.375 C-14.03270238 30.24142064 -19.25946621 28.66959398 -25.9375 28.0625 C-32.3841523 28.62799582 -37.86568314 30.74068314 -42.5 35.375 Z " fill="#99C940" transform="translate(1712.5,2296.625)"/>
<path d="M0 0 C2.5 0.375 2.5 0.375 4.13198853 1.47277832 C6.18853619 4.33241044 5.8814909 6.69280824 5.88818359 10.18554688 C5.89344055 10.87366959 5.89869751 11.5617923 5.90411377 12.27076721 C5.91731742 14.54532573 5.90857496 16.81918437 5.8984375 19.09375 C5.90045814 20.67411432 5.9033695 22.25447774 5.90713501 23.83483887 C5.91155884 27.14698158 5.9051256 30.45888159 5.89111328 33.77099609 C5.87402114 38.0182909 5.88386204 42.26501702 5.90183067 46.51229095 C5.91266706 49.77565807 5.90922289 53.03889019 5.9014473 56.30226135 C5.89944487 57.86837328 5.90190605 59.43449744 5.90888596 61.00059509 C5.91649831 63.18887843 5.9049006 65.37623861 5.88818359 67.56445312 C5.88579681 68.81005005 5.88341003 70.05564697 5.88095093 71.33898926 C5.5 74.375 5.5 74.375 4.12808228 76.27331543 C1.74161739 77.88817948 0.3194122 77.85636306 -2.5 77.375 C-4.8125 75.375 -4.8125 75.375 -6.5 73.375 C-7.03109375 73.65214844 -7.5621875 73.92929688 -8.109375 74.21484375 C-9.16898438 74.75818359 -9.16898438 74.75818359 -10.25 75.3125 C-10.94609375 75.67214844 -11.6421875 76.03179688 -12.359375 76.40234375 C-20.24447291 79.98517108 -30.28902367 79.45881953 -38.375 76.8125 C-46.41550794 73.44945986 -51.80632058 68.20560037 -55.5 60.375 C-58.26016636 52.11315068 -57.64594573 40.35127793 -53.87890625 32.5546875 C-49.58776392 25.77152201 -44.39287051 21.39934352 -36.69140625 19 C-26.66301148 17.03605488 -16.56879958 17.25452133 -7.5 22.375 C-7.17 22.705 -6.84 23.035 -6.5 23.375 C-6.48541748 22.78485107 -6.47083496 22.19470215 -6.45581055 21.58666992 C-6.38131156 18.91128771 -6.28466005 16.23715108 -6.1875 13.5625 C-6.16494141 12.63373047 -6.14238281 11.70496094 -6.11914062 10.74804688 C-6.08369141 9.85537109 -6.04824219 8.96269531 -6.01171875 8.04296875 C-5.98553467 7.22078857 -5.95935059 6.3986084 -5.93237305 5.55151367 C-5.21361534 1.93337423 -3.59488286 0.53923243 0 0 Z M-42.5 35.375 C-46.36936785 41.89926258 -46.38768284 47.96918886 -45.5 55.375 C-43.68824277 60.62506985 -40.43743227 64.2568118 -35.44921875 66.69140625 C-29.03222047 68.94185655 -22.82180278 68.84758671 -16.5 66.375 C-10.81467865 63.31367312 -7.54908174 59.52224522 -5.5 53.375 C-4.75715695 46.518924 -5.42222795 41.04348189 -9.5 35.375 C-14.03270238 30.24142064 -19.25946621 28.66959398 -25.9375 28.0625 C-32.3841523 28.62799582 -37.86568314 30.74068314 -42.5 35.375 Z " fill="#99C940" transform="translate(1422.5,2296.625)"/>
<path d="M0 0 C2.5 0.375 2.5 0.375 4.13198853 1.47277832 C6.18853619 4.33241044 5.8814909 6.69280824 5.88818359 10.18554688 C5.89344055 10.87366959 5.89869751 11.5617923 5.90411377 12.27076721 C5.91731742 14.54532573 5.90857496 16.81918437 5.8984375 19.09375 C5.90045814 20.67411432 5.9033695 22.25447774 5.90713501 23.83483887 C5.91155884 27.14698158 5.9051256 30.45888159 5.89111328 33.77099609 C5.87402114 38.0182909 5.88386204 42.26501702 5.90183067 46.51229095 C5.91266706 49.77565807 5.90922289 53.03889019 5.9014473 56.30226135 C5.89944487 57.86837328 5.90190605 59.43449744 5.90888596 61.00059509 C5.91649831 63.18887843 5.9049006 65.37623861 5.88818359 67.56445312 C5.88579681 68.81005005 5.88341003 70.05564697 5.88095093 71.33898926 C5.5 74.375 5.5 74.375 4.12808228 76.27331543 C1.74161739 77.88817948 0.3194122 77.85636306 -2.5 77.375 C-4.8125 75.375 -4.8125 75.375 -6.5 73.375 C-7.03109375 73.65214844 -7.5621875 73.92929688 -8.109375 74.21484375 C-9.16898438 74.75818359 -9.16898438 74.75818359 -10.25 75.3125 C-10.94609375 75.67214844 -11.6421875 76.03179688 -12.359375 76.40234375 C-20.24447291 79.98517108 -30.28902367 79.45881953 -38.375 76.8125 C-46.41550794 73.44945986 -51.80632058 68.20560037 -55.5 60.375 C-58.26016636 52.11315068 -57.64594573 40.35127793 -53.87890625 32.5546875 C-49.58776392 25.77152201 -44.39287051 21.39934352 -36.69140625 19 C-26.66301148 17.03605488 -16.56879958 17.25452133 -7.5 22.375 C-7.17 22.705 -6.84 23.035 -6.5 23.375 C-6.48541748 22.78485107 -6.47083496 22.19470215 -6.45581055 21.58666992 C-6.38131156 18.91128771 -6.28466005 16.23715108 -6.1875 13.5625 C-6.16494141 12.63373047 -6.14238281 11.70496094 -6.11914062 10.74804688 C-6.08369141 9.85537109 -6.04824219 8.96269531 -6.01171875 8.04296875 C-5.98553467 7.22078857 -5.95935059 6.3986084 -5.93237305 5.55151367 C-5.21361534 1.93337423 -3.59488286 0.53923243 0 0 Z M-42.5 35.375 C-46.36936785 41.89926258 -46.38768284 47.96918886 -45.5 55.375 C-43.68824277 60.62506985 -40.43743227 64.2568118 -35.44921875 66.69140625 C-29.03222047 68.94185655 -22.82180278 68.84758671 -16.5 66.375 C-10.81467865 63.31367312 -7.54908174 59.52224522 -5.5 53.375 C-4.75715695 46.518924 -5.42222795 41.04348189 -9.5 35.375 C-14.03270238 30.24142064 -19.25946621 28.66959398 -25.9375 28.0625 C-32.3841523 28.62799582 -37.86568314 30.74068314 -42.5 35.375 Z " fill="#99C940" transform="translate(1140.5,2296.625)"/>
<path d="M0 0 C6.8228112 4.62619881 11.36276369 9.80268079 13 18 C13.28823074 22.68985604 13.24331842 27.30936153 13 32 C12.34 32 11.68 32 11 32 C11.66 32.99 12.32 33.98 13 35 C13 40.98220854 9.75970032 45.58926933 6 50 C-2.54500018 57.16119448 -12.23728947 57.72152249 -23 57 C-31.60134738 55.88702678 -37.42071838 51.51594934 -43 45 C-48.20312499 37.27577322 -47.87129901 27.9308149 -47 19 C-45.38032969 11.30656601 -41.3178053 5.63163429 -35 1 C-25.05467135 -4.64206145 -10.17148544 -5.73231722 0 0 Z M-33 14 C-35.29296224 17.76909595 -35.29296224 17.76909595 -36 22 C-23.46 22 -10.92 22 2 22 C1.04370083 15.48520895 1.04370083 15.48520895 -3 11 C-13.40123648 5.43696934 -24.30269729 5.30269729 -33 14 Z M-36 32 C-33.86888285 38.39335146 -32.6832046 41.55519752 -26.75 44.75 C-19.51340168 47.16219944 -13.18700489 47.80280334 -6 45 C-3.18780053 43.34947545 -0.84440955 41.70623187 1 39 C1.33 36.69 1.66 34.38 2 32 C-10.54 32 -23.08 32 -36 32 Z " fill="#99C941" transform="translate(1347,2318)"/>
<path d="M0 0 C6.8228112 4.62619881 11.36276369 9.80268079 13 18 C13.28823074 22.68985604 13.24331842 27.30936153 13 32 C12.34 32 11.68 32 11 32 C11.66 32.99 12.32 33.98 13 35 C13 40.98220854 9.75970032 45.58926933 6 50 C-2.54500018 57.16119448 -12.23728947 57.72152249 -23 57 C-31.60134738 55.88702678 -37.42071838 51.51594934 -43 45 C-48.20312499 37.27577322 -47.87129901 27.9308149 -47 19 C-45.38032969 11.30656601 -41.3178053 5.63163429 -35 1 C-25.05467135 -4.64206145 -10.17148544 -5.73231722 0 0 Z M-33 14 C-35.29296224 17.76909595 -35.29296224 17.76909595 -36 22 C-23.46 22 -10.92 22 2 22 C1.04370083 15.48520895 1.04370083 15.48520895 -3 11 C-13.40123648 5.43696934 -24.30269729 5.30269729 -33 14 Z M-36 32 C-33.86888285 38.39335146 -32.6832046 41.55519752 -26.75 44.75 C-19.51340168 47.16219944 -13.18700489 47.80280334 -6 45 C-3.18780053 43.34947545 -0.84440955 41.70623187 1 39 C1.33 36.69 1.66 34.38 2 32 C-10.54 32 -23.08 32 -36 32 Z " fill="#99C941" transform="translate(946,2318)"/>
<path d="M0 0 C1.78412404 1.01941134 1.78412404 1.01941134 3.8203125 0.875 C4.4390625 0.194375 5.0578125 -0.48625 5.6953125 -1.1875 C7.8203125 -3.125 7.8203125 -3.125 9.8828125 -3.0625 C12.113974 -1.98290573 13.27130003 -1.06578841 14.8203125 0.875 C15.20126343 3.18969727 15.20126343 3.18969727 15.20849609 5.94140625 C15.21795258 6.97257568 15.22740906 8.00374512 15.2371521 9.06616211 C15.23107941 10.17870361 15.22500671 11.29124512 15.21875 12.4375 C15.22162018 13.58033447 15.22449036 14.72316895 15.22744751 15.90063477 C15.22949007 18.31820165 15.22394688 20.73578499 15.21142578 23.15332031 C15.19537571 26.86040085 15.21126891 30.566391 15.23046875 34.2734375 C15.22848635 36.61979408 15.22464275 38.96614998 15.21875 41.3125 C15.22785904 42.98131226 15.22785904 42.98131226 15.2371521 44.68383789 C15.22769562 45.71500732 15.21823914 46.74617676 15.20849609 47.80859375 C15.20610931 48.71665771 15.20372253 49.62472168 15.20126343 50.56030273 C14.74545974 53.32981309 14.04968242 54.21717017 11.8203125 55.875 C9.3828125 56.3125 9.3828125 56.3125 6.8203125 55.875 C4.5078125 53.875 4.5078125 53.875 2.8203125 51.875 C2.28921875 52.15214844 1.758125 52.42929688 1.2109375 52.71484375 C0.15132812 53.25818359 0.15132812 53.25818359 -0.9296875 53.8125 C-1.62578125 54.17214844 -2.321875 54.53179688 -3.0390625 54.90234375 C-10.92416041 58.48517108 -20.96871117 57.95881953 -29.0546875 55.3125 C-37.09519544 51.94945986 -42.48600808 46.70560037 -46.1796875 38.875 C-48.93985386 30.61315068 -48.32563323 18.85127793 -44.55859375 11.0546875 C-40.26745142 4.27152201 -35.07255801 -0.10065648 -27.37109375 -2.5 C-17.97596088 -4.3399281 -8.71633269 -4.25475223 0 0 Z M-33.1796875 13.875 C-37.04905535 20.39926258 -37.06737034 26.46918886 -36.1796875 33.875 C-34.36793027 39.12506985 -31.11711977 42.7568118 -26.12890625 45.19140625 C-19.71190797 47.44185655 -13.50149028 47.34758671 -7.1796875 44.875 C-1.49436615 41.81367312 1.77123076 38.02224522 3.8203125 31.875 C4.56315555 25.018924 3.89808455 19.54348189 -0.1796875 13.875 C-4.71238988 8.74142064 -9.93915371 7.16959398 -16.6171875 6.5625 C-23.0638398 7.12799582 -28.54537064 9.24068314 -33.1796875 13.875 Z " fill="#99C940" transform="translate(1239.1796875,2318.125)"/>
<path d="M0 0 C5.9318491 4.46156172 9.6374265 11.49336299 11.015625 18.75 C11.85978752 28.91241797 10.30665181 37.96257235 3.75 45.99609375 C-2.85262708 52.67307474 -10.51469817 54.81366015 -19.734375 55.125 C-29.46089164 54.94946838 -37.21230109 52.45336536 -44.328125 45.6875 C-51.60024701 37.18048934 -51.5295279 27.35951407 -50.984375 16.75 C-49.88360386 9.66103386 -45.17957773 4.45439035 -39.984375 -0.25 C-28.09470922 -8.07610912 -11.81428038 -7.44206638 0 0 Z M-34.859375 10.125 C-40.54960424 17.15410671 -40.91832225 22.83027912 -39.984375 31.75 C-38.57940953 35.36114211 -38.57940953 35.36114211 -35.984375 37.75 C-35.13875 38.6575 -34.293125 39.565 -33.421875 40.5 C-28.7443539 44.1591241 -22.51645286 45.04686418 -16.70703125 44.55859375 C-10.64983583 43.26809722 -6.37393478 40.59022781 -2.671875 35.6875 C0.36709961 30.39743309 0.64545438 25.72894369 0.015625 19.75 C-1.76971219 13.85328632 -4.91464836 10.12981776 -9.984375 6.75 C-18.7940181 3.44638384 -27.48220008 4.03081202 -34.859375 10.125 Z " fill="#99C941" transform="translate(1638.984375,2320.25)"/>
<path d="M0 0 C5.9318491 4.46156172 9.6374265 11.49336299 11.015625 18.75 C11.85978752 28.91241797 10.30665181 37.96257235 3.75 45.99609375 C-2.85262708 52.67307474 -10.51469817 54.81366015 -19.734375 55.125 C-29.46089164 54.94946838 -37.21230109 52.45336536 -44.328125 45.6875 C-51.60024701 37.18048934 -51.5295279 27.35951407 -50.984375 16.75 C-49.88360386 9.66103386 -45.17957773 4.45439035 -39.984375 -0.25 C-28.09470922 -8.07610912 -11.81428038 -7.44206638 0 0 Z M-34.859375 10.125 C-40.54960424 17.15410671 -40.91832225 22.83027912 -39.984375 31.75 C-38.57940953 35.36114211 -38.57940953 35.36114211 -35.984375 37.75 C-35.13875 38.6575 -34.293125 39.565 -33.421875 40.5 C-28.7443539 44.1591241 -22.51645286 45.04686418 -16.70703125 44.55859375 C-10.64983583 43.26809722 -6.37393478 40.59022781 -2.671875 35.6875 C0.36709961 30.39743309 0.64545438 25.72894369 0.015625 19.75 C-1.76971219 13.85328632 -4.91464836 10.12981776 -9.984375 6.75 C-18.7940181 3.44638384 -27.48220008 4.03081202 -34.859375 10.125 Z " fill="#99C941" transform="translate(1569.984375,2320.25)"/>
<path d="M0 0 C2.01305795 1.5603998 2.88732352 2.48064477 3.43237305 4.99291992 C3.45855713 5.73131104 3.48474121 6.46970215 3.51171875 7.23046875 C3.54716797 8.03291016 3.58261719 8.83535156 3.61914062 9.66210938 C3.64169922 10.49548828 3.66425781 11.32886719 3.6875 12.1875 C3.73874023 13.4549707 3.73874023 13.4549707 3.79101562 14.74804688 C3.87341471 16.83156649 3.93838645 18.91576216 4 21 C5.10472656 20.51917969 6.20945312 20.03835937 7.34765625 19.54296875 C15.52688346 16.0875733 23.18338344 16.19209358 31.5390625 18.96875 C38.62842355 21.93952987 42.11775151 25.51536071 45.13909912 32.49282837 C46.49783441 36.4498258 46.55458406 40.15394631 46.49609375 44.3046875 C46.49754898 45.1504837 46.49900421 45.99627991 46.50050354 46.8677063 C46.49885679 48.63742556 46.48743437 50.40716099 46.46655273 52.17675781 C46.4373462 54.88928378 46.44601821 57.59988103 46.45898438 60.3125 C46.45275325 62.039072 46.44436722 63.76563787 46.43359375 65.4921875 C46.43652939 66.30154755 46.43946503 67.11090759 46.44248962 67.9447937 C46.34780758 73.5546766 46.34780758 73.5546766 44.63490295 75.74783325 C43 77 43 77 40.4375 76.8125 C38 76 38 76 36 74 C35.79089238 71.5044483 35.69891931 69.1108889 35.69140625 66.61328125 C35.66622742 65.10221 35.6408297 63.59114238 35.61523438 62.08007812 C35.58660148 59.70159001 35.56258467 57.3231657 35.54370117 54.94458008 C35.52189037 52.6462965 35.4824212 50.3487911 35.44140625 48.05078125 C35.44129044 47.34947586 35.44117462 46.64817047 35.4410553 45.9256134 C35.31828141 39.72448906 34.01761645 34.96717604 29.5 30.5625 C23.50769987 27.88736602 17.61693271 28.01865023 11.5 30.3125 C6.86900409 33.43842224 5.52268334 35.53848443 4 41 C3.80748812 43.59969018 3.69956453 46.10137328 3.69140625 48.69921875 C3.66627204 50.16992628 3.64087369 51.64062931 3.61523438 53.11132812 C3.58639423 55.40892609 3.56234625 57.70644671 3.54370117 60.00415039 C3.52209057 62.23621683 3.48269085 64.46744236 3.44140625 66.69921875 C3.44129044 67.38674728 3.44117462 68.07427582 3.4410553 68.78263855 C3.38147099 71.64639672 3.31261144 73.55938317 1.62866211 75.93286133 C-0.72176811 77.47291986 -2.25119499 77.41232075 -5 77 C-6.63198853 75.90222168 -6.63198853 75.90222168 -8 74 C-8.38095093 70.96398926 -8.38095093 70.96398926 -8.38818359 67.18945312 C-8.39344055 66.50133041 -8.39869751 65.8132077 -8.40411377 65.10423279 C-8.41731742 62.82967427 -8.40857496 60.55581563 -8.3984375 58.28125 C-8.40045814 56.70088568 -8.4033695 55.12052226 -8.40713501 53.54016113 C-8.41155884 50.22801842 -8.4051256 46.91611841 -8.39111328 43.60400391 C-8.37402114 39.3567091 -8.38386204 35.10998298 -8.40183067 30.86270905 C-8.41266706 27.59934193 -8.40922289 24.33610981 -8.4014473 21.07273865 C-8.39944487 19.50662672 -8.40190605 17.94050256 -8.40888596 16.37440491 C-8.41649831 14.18612157 -8.4049006 11.99876139 -8.38818359 9.81054688 C-8.38579681 8.56494995 -8.38341003 7.31935303 -8.38095093 6.03601074 C-8 3 -8 3 -6.63198853 1.09777832 C-4.28419037 -0.48149866 -2.76638938 -0.41495841 0 0 Z " fill="#99C940" transform="translate(976,2297)"/>
<path d="M0 0 C4.65586518 3.70678497 6.76231797 7.56658074 7.53125 13.4296875 C7.03125 16.6171875 7.03125 16.6171875 5.96875 18.5546875 C3.01956309 20.17198355 0.32257441 19.80348888 -2.96875 19.6171875 C-3.17177734 18.69486328 -3.17177734 18.69486328 -3.37890625 17.75390625 C-4.56427892 13.30343519 -5.17840348 11.15462314 -9.09375 8.4921875 C-13.67836967 7.4569508 -17.43919935 7.28805295 -21.96875 8.6171875 C-24.51781626 10.49151255 -24.51781626 10.49151255 -25.96875 12.6171875 C-25.5236036 15.10165579 -25.5236036 15.10165579 -23.96875 17.6171875 C-21.3713543 18.72520948 -19.11088645 19.49042067 -16.40625 20.1796875 C-14.94947781 20.5940063 -13.49373416 21.01195925 -12.0390625 21.43359375 C-11.3368457 21.63355957 -10.63462891 21.83352539 -9.91113281 22.03955078 C-3.51118737 23.94280253 1.82286432 26.26106027 6.03125 31.6171875 C8.49866918 36.23018858 8.20693604 40.1838768 7.0546875 45.14453125 C5.24766664 49.51034883 2.01263509 52.20089862 -1.96875 54.6171875 C-10.95863715 58.25217579 -20.69834108 57.62847748 -29.58203125 53.9453125 C-34.80048305 51.0414277 -37.39007521 47.62552941 -39.03125 41.9296875 C-38.96875 38.6171875 -38.96875 38.6171875 -37.96875 36.1796875 C-35.02846021 33.8825861 -32.58261759 34.34444278 -28.96875 34.6171875 C-28.741875 35.8959375 -28.515 37.1746875 -28.28125 38.4921875 C-27.47447596 41.82186632 -27.47447596 41.82186632 -24.96875 44.0546875 C-14.59282142 46.14186532 -14.59282142 46.14186532 -4.96875 42.6171875 C-3.91707473 40.03985836 -3.91707473 40.03985836 -3.96875 37.6171875 C-8.34980423 34.57064277 -12.68600309 33.53924866 -17.78125 32.3046875 C-25.04781433 30.41739117 -31.89268101 28.48676112 -36.12109375 21.79296875 C-37.91330607 17.19268183 -37.77026709 12.43245554 -36.96875 7.6171875 C-34.46717708 2.96189352 -30.33241153 -1.22868935 -25.23828125 -2.9765625 C-16.52447805 -4.53634827 -7.76618272 -4.58204781 0 0 Z " fill="#99C941" transform="translate(1764.96875,2318.3828125)"/>
<path d="M0 0 C1.98 0 3.96 0 6 0 C12.74664105 13.14531781 18.90487423 26.54217807 25 40 C29.28978643 31.86258669 32.79491735 23.44985455 36.25 14.9375 C37.06029632 12.94568194 37.87173518 10.95435856 38.68621826 8.96424866 C39.41502864 7.18295546 40.13975658 5.39999355 40.86425781 3.61694336 C42 1 42 1 43 0 C45.3125 -0.375 45.3125 -0.375 48 0 C50.375 2.1875 50.375 2.1875 52 5 C51.57376283 9.31624205 49.82391399 13.1739769 48.1484375 17.1328125 C47.71171722 18.17955139 47.71171722 18.17955139 47.26617432 19.24743652 C46.30716595 21.54196546 45.34127792 23.83352399 44.375 26.125 C43.70598101 27.72044124 43.03720178 29.31598304 42.36865234 30.91162109 C36.27019046 45.44374462 30.07811363 59.93641577 23.8515625 74.4140625 C23.57620667 75.05508911 23.30085083 75.69611572 23.01715088 76.35656738 C22.05272181 78.59486801 21.09021762 80.81956477 20 83 C14.59567654 83.48038431 14.59567654 83.48038431 12.0625 81.4375 C10.54574611 77.95788813 11.25583454 75.69792992 12 72 C13.47599964 68.42568737 15.13484213 64.97968076 16.8203125 61.5 C19.0962172 54.74764699 16.50417583 49.24966096 13.54296875 43.1953125 C13.19873367 42.47189667 12.8544986 41.74848083 12.49983215 41.00314331 C11.40456417 38.70607202 10.29650015 36.41546818 9.1875 34.125 C8.45418059 32.59548208 7.72175066 31.06553736 6.99023438 29.53515625 C6.6347049 28.79183044 6.27917542 28.04850464 5.91287231 27.28265381 C4.56450003 24.46153631 3.21753423 21.63974868 1.871521 18.81750488 C1.10996459 17.22932458 0.33649296 15.64686891 -0.43896484 14.06542969 C-3.35259425 7.94242183 -3.35259425 7.94242183 -2 4 C-1.36345658 2.6520257 -0.70394612 1.31403276 0 0 Z " fill="#99C940" transform="translate(1030,2315)"/>
<path d="M0 0 C1.1758667 -0.00574036 1.1758667 -0.00574036 2.37548828 -0.01159668 C4.02963549 -0.01431353 5.68382583 -0.0069681 7.33789062 0.00976562 C9.86686162 0.03118108 12.39299214 0.00995903 14.921875 -0.015625 C16.53125626 -0.01298168 18.14063575 -0.00785661 19.75 0 C20.5042627 -0.00809692 21.25852539 -0.01619385 22.03564453 -0.02453613 C25.57788291 0.03858848 27.5268887 0.26732425 30.38671875 2.43554688 C31.875 4.53125 31.875 4.53125 31.8125 6.59375 C30.70380571 8.88505153 29.9213743 9.99088434 27.875 11.53125 C24.87231445 11.87182617 24.87231445 11.87182617 21.23828125 11.82421875 C19.93955078 11.81455078 18.64082031 11.80488281 17.30273438 11.79492188 C15.93098361 11.76985585 14.55923882 11.74446101 13.1875 11.71875 C11.80405076 11.7037002 10.42058599 11.6900123 9.03710938 11.67773438 C5.64957274 11.64232458 2.26223763 11.58851701 -1.125 11.53125 C-1.125 18.46125 -1.125 25.39125 -1.125 32.53125 C1.62070313 32.46164063 1.62070313 32.46164063 4.421875 32.390625 C6.82290037 32.35310898 9.22394336 32.31670864 11.625 32.28125 C12.8315625 32.24773438 14.038125 32.21421875 15.28125 32.1796875 C17.02148438 32.16035156 17.02148438 32.16035156 18.796875 32.140625 C19.86518555 32.11967773 20.93349609 32.09873047 22.03417969 32.07714844 C25.55455434 32.63987591 26.73556609 33.73352873 28.875 36.53125 C28.69746387 39.54936422 28.03764785 40.36860215 25.875 42.53125 C23.16943359 42.75830078 23.16943359 42.75830078 19.7734375 42.7265625 C17.95585938 42.71689453 17.95585938 42.71689453 16.1015625 42.70703125 C14.83054687 42.69027344 13.55953125 42.67351563 12.25 42.65625 C10.97125 42.64722656 9.6925 42.63820313 8.375 42.62890625 C5.20814833 42.60527303 2.04166576 42.57232629 -1.125 42.53125 C-1.10143433 43.82542847 -1.10143433 43.82542847 -1.07739258 45.14575195 C-1.02624045 48.34934267 -0.9886384 51.55272515 -0.96020508 54.7565918 C-0.94512603 56.14272919 -0.9246595 57.52881894 -0.89868164 58.91479492 C-0.86226284 60.90783146 -0.84686982 62.90121723 -0.83203125 64.89453125 C-0.8163208 66.09376221 -0.80061035 67.29299316 -0.78442383 68.52856445 C-1.125 71.53125 -1.125 71.53125 -2.48706055 73.42260742 C-4.83735506 75.01340894 -6.35026319 74.94746052 -9.125 74.53125 C-10.7559967 73.40953064 -10.7559967 73.40953064 -12.125 71.53125 C-12.51268005 68.65382385 -12.51268005 68.65382385 -12.52905273 65.10375977 C-12.53591599 64.45625763 -12.54277924 63.80875549 -12.54985046 63.14163208 C-12.56814803 61.00175023 -12.56427701 58.86259953 -12.55859375 56.72265625 C-12.56315439 55.23436748 -12.56845961 53.74608083 -12.57447815 52.25779724 C-12.58341517 49.13816779 -12.58097986 46.01879425 -12.57104492 42.89916992 C-12.559558 38.90294147 -12.57975832 34.90759701 -12.60896206 30.91148472 C-12.62731689 27.83764542 -12.62703306 24.76401821 -12.62132454 21.69013786 C-12.62117121 20.21694639 -12.62722492 18.74374064 -12.63961601 17.27060127 C-12.65451093 15.2092169 -12.64386305 13.14946826 -12.62670898 11.08813477 C-12.62654282 9.91581802 -12.62637665 8.74350128 -12.62620544 7.53565979 C-11.41924834 0.30071498 -6.35710307 -0.06824277 0 0 Z " fill="#98C940" transform="translate(1483.125,2299.46875)"/>
<path d="M0 0 C2.4375 0.8125 2.4375 0.8125 4.4375 2.8125 C4.6328125 4.9765625 4.6328125 4.9765625 4.5625 7.4375 C4.54445313 8.25476562 4.52640625 9.07203125 4.5078125 9.9140625 C4.48460937 10.54054688 4.46140625 11.16703125 4.4375 11.8125 C5.40171875 11.76609375 6.3659375 11.7196875 7.359375 11.671875 C8.62265625 11.63578125 9.8859375 11.5996875 11.1875 11.5625 C12.44046875 11.51609375 13.6934375 11.4696875 14.984375 11.421875 C18.4375 11.8125 18.4375 11.8125 20.89453125 13.69921875 C22.4375 15.8125 22.4375 15.8125 22.375 17.875 C21.25448238 20.19073641 20.52667099 21.27583704 18.4375 22.8125 C15.08203125 23.10546875 15.08203125 23.10546875 11.25 23 C9.34154297 22.95939453 9.34154297 22.95939453 7.39453125 22.91796875 C5.93080078 22.86576172 5.93080078 22.86576172 4.4375 22.8125 C4.55578208 27.45744858 4.68003274 32.10218465 4.80981445 36.74682617 C4.85312305 38.32686015 4.89480106 39.90693969 4.93481445 41.48706055 C4.99261583 43.75844048 5.0562816 46.02959189 5.12109375 48.30078125 C5.13780624 49.00713211 5.15451874 49.71348297 5.17173767 50.4412384 C5.2634747 53.4789824 5.46957686 55.90873058 6.4375 58.8125 C8.8475492 60.0175246 10.62728742 59.98556018 13.3125 60.125 C16.75391645 60.4437419 18.20421848 60.6551706 21.125 62.625 C22.4375 64.8125 22.4375 64.8125 22.3125 66.9375 C21.4375 68.8125 21.4375 68.8125 19.4375 70.8125 C16.171875 71.11328125 16.171875 71.11328125 12.1875 71.125 C10.88296875 71.14175781 9.5784375 71.15851562 8.234375 71.17578125 C2.86300464 70.66185384 -0.20768284 69.41811229 -3.7109375 65.26635742 C-6.07922318 60.84861776 -6.07669008 57.61579465 -5.953125 52.6953125 C-5.94746521 51.83815643 -5.94180542 50.98100037 -5.93597412 50.09786987 C-5.91369639 47.3771632 -5.86351774 44.65780432 -5.8125 41.9375 C-5.7924238 40.08595661 -5.774175 38.23439244 -5.7578125 36.3828125 C-5.71386001 31.8588607 -5.64489359 27.33590836 -5.5625 22.8125 C-6.51382812 22.83699219 -7.46515625 22.86148438 -8.4453125 22.88671875 C-11.5625 22.8125 -11.5625 22.8125 -13.4375 21.625 C-14.96909584 19.15742892 -14.99072025 17.66730169 -14.5625 14.8125 C-13.4375 13 -13.4375 13 -11.5625 11.8125 C-8.375 11.625 -8.375 11.625 -5.5625 11.8125 C-5.59730469 11.19761719 -5.63210938 10.58273438 -5.66796875 9.94921875 C-5.69503906 9.14097656 -5.72210937 8.33273438 -5.75 7.5 C-5.78480469 6.69949219 -5.81960938 5.89898438 -5.85546875 5.07421875 C-5.5625 2.8125 -5.5625 2.8125 -4.2109375 1.0078125 C-2.5625 -0.1875 -2.5625 -0.1875 0 0 Z " fill="#99C940" transform="translate(1273.5625,2303.1875)"/>
<path d="M0 0 C1.5625 2.25 1.5625 2.25 1.5 4.3125 C0.4197356 6.54504642 -0.51986141 7.66952863 -2.4375 9.25 C-4.9609375 10.0234375 -4.9609375 10.0234375 -7.8125 10.625 C-12.86717061 11.89535373 -15.31537226 13.08716301 -18.4375 17.25 C-19.65440149 20.90070448 -19.61095115 24.29092749 -19.6484375 28.09375 C-19.67649485 29.6653752 -19.70515923 31.23698966 -19.734375 32.80859375 C-19.77570583 35.28401516 -19.81259798 37.75923351 -19.83886719 40.23486328 C-19.86643052 42.62574463 -19.91228526 45.01571737 -19.9609375 47.40625 C-19.96419037 48.14693726 -19.96744324 48.88762451 -19.97079468 49.65075684 C-20.09324885 54.75705879 -20.09324885 54.75705879 -21.81103516 57.21679688 C-24.16539041 58.71238851 -25.70719124 58.65954631 -28.4375 58.25 C-30.66632616 56.59951887 -31.36126832 55.70382859 -31.82518005 52.94203186 C-31.83058304 52.0369841 -31.83598602 51.13193634 -31.84155273 50.19946289 C-31.85423691 49.17152115 -31.86692108 48.14357941 -31.87998962 47.08448792 C-31.87705399 45.97508347 -31.87411835 44.86567902 -31.87109375 43.72265625 C-31.8763356 42.58219345 -31.88157745 41.44173065 -31.88697815 40.26670837 C-31.89340546 37.85335098 -31.89205224 35.43996229 -31.88354492 33.02661133 C-31.87504101 29.33032503 -31.90377919 25.63558641 -31.93554688 21.93945312 C-31.93715906 19.59635463 -31.93658104 17.25325339 -31.93359375 14.91015625 C-31.94482773 13.80277603 -31.95606171 12.69539581 -31.96763611 11.55445862 C-31.95825516 10.52336472 -31.94887421 9.49227081 -31.93920898 8.42993164 C-31.93904282 7.52408829 -31.93887665 6.61824493 -31.93870544 5.68495178 C-31.28033789 2.48647646 -29.95916644 1.25579474 -27.4375 -0.75 C-24.36314622 -0.56367553 -23.06378904 0.49914064 -20.4375 2.25 C-18.0715213 1.32989717 -15.73894109 0.32136051 -13.4375 -0.75 C-8.66528675 -2.0303499 -4.1897303 -3.0080115 0 0 Z " fill="#99C840" transform="translate(1188.4375,2315.75)"/>
</svg>
